<svg width="639" height="639" viewBox="0 0 639 639" fill="none" xmlns="http://www.w3.org/2000/svg">
<path d="M104.681 390.608C104.681 390.608 136.631 463.454 217.414 487.276C298.196 511.098 384.461 479.352 454.956 455.492C525.45 431.632 562.525 370.62 546.818 308.062C531.112 245.504 471.723 250.002 416.334 194.448C360.946 138.893 354.633 115.71 277.876 99.3006C201.119 82.8911 117.104 147.494 96.0932 238.986C75.0829 330.478 104.681 390.608 104.681 390.608Z" fill="#BC6C9A"/>
<path opacity="0.8" d="M104.681 390.608C104.681 390.608 136.631 463.454 217.414 487.276C298.196 511.098 384.461 479.352 454.956 455.492C525.45 431.632 562.525 370.62 546.818 308.062C531.112 245.504 471.723 250.002 416.334 194.448C360.946 138.893 354.633 115.71 277.876 99.3006C201.119 82.8911 117.104 147.494 96.0932 238.986C75.0829 330.478 104.681 390.608 104.681 390.608Z" fill="white"/>
<path d="M515.034 292.151C515.034 292.151 544.326 295.052 559.163 313.212C559.163 313.212 574.857 292.176 603.024 292.611C609.908 284.307 614.291 274.218 615.663 263.519C617.035 252.821 615.34 241.952 610.775 232.18C606.21 222.407 598.963 214.132 589.877 208.319C580.792 202.505 570.242 199.392 559.455 199.342C548.669 199.292 538.091 202.307 528.952 208.036C519.812 213.764 512.489 221.972 507.833 231.701C503.177 241.431 501.381 252.283 502.654 262.994C503.926 273.705 508.215 283.834 515.021 292.202L515.034 292.151Z" fill="#BC6C9A"/>
<path opacity="0.5" d="M515.034 292.151C515.034 292.151 544.326 295.052 559.163 313.212C559.163 313.212 574.857 292.176 603.024 292.611C609.908 284.307 614.291 274.218 615.663 263.519C617.035 252.821 615.34 241.952 610.775 232.18C606.21 222.407 598.963 214.132 589.877 208.319C580.792 202.505 570.242 199.392 559.455 199.342C548.669 199.292 538.091 202.307 528.952 208.036C519.812 213.764 512.489 221.972 507.833 231.701C503.177 241.431 501.381 252.283 502.654 262.994C503.926 273.705 508.215 283.834 515.021 292.202L515.034 292.151Z" fill="white"/>
<path d="M558.179 203.355L557.195 393.189H562.141L558.179 203.355Z" fill="#B8B8B8"/>
<path d="M559.675 307.679C559.675 307.679 569.554 289.876 587.356 284.432C587.356 284.432 568.57 288.892 559.24 304.215L559.675 307.679Z" fill="#B8B8B8"/>
<path d="M559.675 257.249C559.675 257.249 569.554 239.446 587.356 234.002C587.356 234.002 568.57 238.449 559.24 253.785L559.675 257.249Z" fill="#B8B8B8"/>
<path d="M559.675 282.438C559.675 282.438 569.554 264.635 587.356 259.191C587.356 259.191 568.57 263.651 559.24 278.975L559.675 282.438Z" fill="#B8B8B8"/>
<path d="M558.205 270.093C558.205 270.093 548.659 252.303 531.482 246.858C531.482 246.858 549.617 251.306 558.678 266.642L558.205 270.093Z" fill="#B8B8B8"/>
<path d="M558.205 294.822C558.205 294.822 548.659 277.019 531.482 271.588C531.482 271.588 549.617 276.035 558.678 291.358L558.205 294.822Z" fill="#B8B8B8"/>
<path d="M35.6181 292.151C35.6181 292.151 64.9099 295.052 79.7475 313.212C79.7475 313.212 95.4413 292.176 123.608 292.611C130.492 284.307 134.875 274.218 136.247 263.519C137.619 252.821 135.924 241.952 131.359 232.18C126.794 222.407 119.547 214.132 110.461 208.319C101.376 202.505 90.8255 199.392 80.0394 199.342C69.2532 199.292 58.6747 202.307 49.5355 208.036C40.3963 213.764 33.0725 221.972 28.4168 231.701C23.761 241.431 21.9649 252.283 23.2376 262.994C24.5102 273.705 28.7993 283.834 35.6053 292.202L35.6181 292.151Z" fill="#BC6C9A"/>
<path opacity="0.5" d="M35.6181 292.151C35.6181 292.151 64.9099 295.052 79.7475 313.212C79.7475 313.212 95.4413 292.176 123.608 292.611C130.492 284.307 134.875 274.218 136.247 263.519C137.619 252.821 135.924 241.952 131.359 232.18C126.794 222.407 119.547 214.132 110.461 208.319C101.376 202.505 90.8255 199.392 80.0394 199.342C69.2532 199.292 58.6747 202.307 49.5355 208.036C40.3963 213.764 33.0725 221.972 28.4168 231.701C23.761 241.431 21.9649 252.283 23.2376 262.994C24.5102 273.705 28.7993 283.834 35.6053 292.202L35.6181 292.151Z" fill="white"/>
<path d="M78.7898 203.355L77.793 393.189H82.7388L78.7898 203.355Z" fill="#B8B8B8"/>
<path d="M80.2724 307.679C80.2724 307.679 90.1514 289.876 107.954 284.432C107.954 284.432 89.1673 288.892 79.8379 304.215L80.2724 307.679Z" fill="#B8B8B8"/>
<path d="M80.2724 257.249C80.2724 257.249 90.1514 239.446 107.954 234.002C107.954 234.002 89.1673 238.449 79.8379 253.785L80.2724 257.249Z" fill="#B8B8B8"/>
<path d="M80.2724 282.438C80.2724 282.438 90.1514 264.635 107.954 259.191C107.954 259.191 89.1673 263.651 79.8379 278.975L80.2724 282.438Z" fill="#B8B8B8"/>
<path d="M78.8011 270.093C78.8011 270.093 69.2544 252.303 52.0781 246.858C52.0781 246.858 70.2129 251.306 79.274 266.642L78.8011 270.093Z" fill="#B8B8B8"/>
<path d="M78.8011 294.822C78.8011 294.822 69.2544 277.019 52.0781 271.588C52.0781 271.588 70.2129 276.035 79.274 291.358L78.8011 294.822Z" fill="#B8B8B8"/>
<path d="M396.014 310.554C396.014 310.554 419.99 312.918 432.131 327.781C432.131 327.781 444.974 310.567 468.03 310.912C473.661 304.114 477.245 295.857 478.366 287.101C479.486 278.345 478.096 269.451 474.358 261.455C470.62 253.458 464.688 246.688 457.251 241.932C449.815 237.176 441.18 234.63 432.353 234.591C423.526 234.552 414.87 237.021 407.391 241.711C399.913 246.4 393.92 253.118 390.112 261.081C386.303 269.044 384.834 277.925 385.877 286.691C386.92 295.456 390.431 303.745 396.001 310.592L396.014 310.554Z" fill="#BC6C9A"/>
<path opacity="0.5" d="M396.014 310.554C396.014 310.554 419.99 312.918 432.131 327.781C432.131 327.781 444.974 310.567 468.03 310.912C473.661 304.114 477.245 295.857 478.366 287.101C479.486 278.345 478.096 269.451 474.358 261.455C470.62 253.458 464.688 246.688 457.251 241.932C449.815 237.176 441.18 234.63 432.353 234.591C423.526 234.552 414.87 237.021 407.391 241.711C399.913 246.4 393.92 253.118 390.112 261.081C386.303 269.044 384.834 277.925 385.877 286.691C386.92 295.456 390.431 303.745 396.001 310.592L396.014 310.554Z" fill="white"/>
<path d="M431.338 237.81L430.533 393.189H434.584L431.338 237.81Z" fill="#B8B8B8"/>
<path d="M432.552 323.206C432.552 323.206 440.655 308.637 455.211 304.177C455.211 304.177 439.875 307.819 432.207 320.369L432.552 323.206Z" fill="#B8B8B8"/>
<path d="M432.552 281.927C432.552 281.927 440.655 267.358 455.211 262.91C455.211 262.91 439.875 266.552 432.207 279.09L432.552 281.927Z" fill="#B8B8B8"/>
<path d="M432.552 302.567C432.552 302.567 440.655 287.997 455.211 283.537C455.211 283.537 439.875 287.179 432.207 299.729L432.552 302.567Z" fill="#B8B8B8"/>
<path d="M431.351 292.445C431.351 292.445 423.542 277.876 409.484 273.428C409.484 273.428 424.322 277.07 431.747 289.608L431.351 292.445Z" fill="#B8B8B8"/>
<path d="M431.351 312.675C431.351 312.675 423.542 298.106 409.484 293.659C409.484 293.659 424.322 297.301 431.747 309.851L431.351 312.675Z" fill="#B8B8B8"/>
<path d="M164.044 310.554C164.044 310.554 188.019 312.918 200.16 327.781C200.16 327.781 212.94 310.567 236.059 310.912C241.69 304.114 245.275 295.857 246.395 287.101C247.515 278.345 246.126 269.451 242.388 261.455C238.65 253.458 232.717 246.688 225.281 241.932C217.844 237.176 209.21 234.63 200.383 234.591C191.556 234.552 182.899 237.021 175.421 241.711C167.942 246.4 161.95 253.118 158.141 261.081C154.332 269.044 152.864 277.925 153.906 286.691C154.949 295.456 158.46 303.745 164.031 310.592L164.044 310.554Z" fill="#BC6C9A"/>
<path opacity="0.5" d="M164.044 310.554C164.044 310.554 188.019 312.918 200.16 327.781C200.16 327.781 212.94 310.567 236.059 310.912C241.69 304.114 245.275 295.857 246.395 287.101C247.515 278.345 246.126 269.451 242.388 261.455C238.65 253.458 232.717 246.688 225.281 241.932C217.844 237.176 209.21 234.63 200.383 234.591C191.556 234.552 182.899 237.021 175.421 241.711C167.942 246.4 161.95 253.118 158.141 261.081C154.332 269.044 152.864 277.925 153.906 286.691C154.949 295.456 158.46 303.745 164.031 310.592L164.044 310.554Z" fill="white"/>
<path d="M199.368 237.81L198.562 393.189H202.614L199.368 237.81Z" fill="#B8B8B8"/>
<path d="M200.646 323.206C200.646 323.206 208.748 308.637 223.305 304.177C223.305 304.177 207.969 307.819 200.301 320.369L200.646 323.206Z" fill="#B8B8B8"/>
<path d="M200.646 281.927C200.646 281.927 208.748 267.358 223.305 262.91C223.305 262.91 207.969 266.552 200.301 279.09L200.646 281.927Z" fill="#B8B8B8"/>
<path d="M200.646 302.567C200.646 302.567 208.748 287.997 223.305 283.537C223.305 283.537 207.969 287.179 200.301 299.729L200.646 302.567Z" fill="#B8B8B8"/>
<path d="M199.367 292.445C199.367 292.445 191.572 277.876 177.514 273.492C177.514 273.492 192.351 277.134 199.776 289.671L199.367 292.445Z" fill="#B8B8B8"/>
<path d="M199.369 312.675C199.369 312.675 191.56 298.106 177.502 293.659C177.502 293.659 192.34 297.301 199.765 309.851L199.369 312.675Z" fill="#B8B8B8"/>
<path d="M44.4355 393.867H595.944" stroke="#141414" stroke-width="1.04742" stroke-miterlimit="10"/>
<path opacity="0.3" d="M195.01 455.543C195.01 459.377 171.456 462.432 142.382 462.432C113.307 462.432 89.7539 459.352 89.7539 455.543C89.7539 451.735 113.32 448.655 142.382 448.655C171.444 448.655 195.01 451.747 195.01 455.543Z" fill="#141414"/>
<path opacity="0.3" d="M305.186 455.543C305.186 459.377 281.619 462.432 252.558 462.432C223.496 462.432 199.93 459.352 199.93 455.543C199.93 451.735 223.496 448.655 252.558 448.655C281.619 448.655 305.186 451.747 305.186 455.543Z" fill="#141414"/>
<path opacity="0.3" d="M451.134 455.543C451.134 459.377 427.58 462.432 398.519 462.432C369.457 462.432 345.891 459.352 345.891 455.543C345.891 451.735 369.444 448.655 398.519 448.655C427.593 448.655 451.134 451.747 451.134 455.543Z" fill="#141414"/>
<path opacity="0.3" d="M573.055 455.543C573.055 459.377 549.489 462.432 520.427 462.432C491.365 462.432 467.748 459.352 467.748 455.543C467.748 451.735 491.314 448.655 520.376 448.655C549.438 448.655 573.055 451.747 573.055 455.543Z" fill="#141414"/>
<path d="M404.206 254.028C404.206 254.028 402.047 262.974 402.047 264.482C402.045 265.415 401.942 266.345 401.74 267.255C401.74 267.255 397.126 272.789 397.74 274.323C398.485 275.515 399.553 276.472 400.82 277.083C400.82 277.083 403.274 286.029 405.74 286.617C408.273 287.09 410.835 287.398 413.408 287.537L414.328 294.911L426.623 293.071L423.555 282.003L424.833 272.47C424.833 272.47 426.98 268.482 424.833 262.028C422.686 255.574 418.073 255.268 414.993 255.268C411.379 255.039 407.778 254.625 404.206 254.028Z" fill="white" stroke="#141414" stroke-width="1.04742" stroke-linecap="round" stroke-linejoin="round"/>
<path d="M409.74 249.427C409.74 249.427 398.979 249.108 399.286 251.881C399.592 254.654 410.66 258.271 410.66 258.271C410.66 258.271 406.967 260.725 408.807 263.191C410.647 265.658 414.954 267.805 414.954 267.805C414.954 267.805 413.676 273.032 415.58 273.339C417.484 273.645 418.647 270.872 418.954 269.952C419.261 269.032 422.648 269.338 423.568 271.792C424.088 273.067 424.399 274.418 424.488 275.792C424.488 275.792 428.181 264.725 428.795 259.805C429.408 254.884 415.58 249.427 409.74 249.427Z" fill="#141414" stroke="#141414" stroke-width="1.04742" stroke-linecap="round" stroke-linejoin="round"/>
<path d="M416.551 273.492C416.551 273.492 420.27 265.313 422.493 269.339C424.717 273.364 423.771 277.556 421.586 278.003C419.401 278.451 417.573 278.885 417.573 278.885" fill="white"/>
<path d="M416.551 273.492C416.551 273.492 420.27 265.313 422.493 269.339C424.717 273.364 423.771 277.556 421.586 278.003C419.401 278.451 417.573 278.885 417.573 278.885" stroke="#141414" stroke-width="1.04742" stroke-linecap="round" stroke-linejoin="round"/>
<path d="M401.433 358.85C400.832 359.553 390.979 380.678 389.752 387.745C388.525 394.813 380.538 436.935 380.218 438.776C379.899 440.616 363.016 444.309 361.777 444.616C360.537 444.923 363.055 448.31 366.697 449.23C370.339 450.15 380.845 454.457 383.311 451.99C385.778 449.524 389.152 435.696 390.072 434.162C390.992 432.629 408.296 391.86 408.296 391.86C408.296 391.86 417.165 372.294 419.006 370.441C420.846 368.588 416.82 360.396 415.274 357.929C413.727 355.463 405.74 353.929 401.433 358.85Z" fill="#141414" stroke="#141414" stroke-width="1.04742" stroke-linecap="round" stroke-linejoin="round"/>
<path d="M399.592 359.118C399.592 359.118 403.899 379.719 406.046 387.093C408.056 393.287 411.079 399.104 414.992 404.308C417.459 407.695 429.446 437.536 429.446 437.536L431.287 442.15C431.287 442.15 430.673 443.99 427.299 446.444C423.925 448.897 414.379 452.898 416.845 453.831C419.312 454.763 429.139 454.751 433.753 454.444C437.725 454.163 441.449 452.408 444.194 449.524C446.047 447.364 441.127 441.217 441.127 439.99C441.127 438.763 430.366 401.266 429.753 399.413C429.139 397.56 426.059 384.358 426.059 384.358V369.342C426.059 369.342 427.606 366.582 427.606 360.396C427.606 354.21 422.992 353.009 422.992 353.009L397.777 355.476L399.592 359.118Z" fill="#141414" stroke="#141414" stroke-width="1.04742" stroke-linecap="round" stroke-linejoin="round"/>
<path d="M397.457 357.316C397.457 357.316 398.083 362.543 399.924 362.85C401.764 363.157 420.819 368.384 429.126 362.236C429.126 362.236 430.659 357.623 429.739 356.396C428.819 355.169 426.659 355.782 415.605 355.782C404.55 355.782 397.457 355.782 397.457 357.316Z" fill="#BC6C9A" stroke="#141414" stroke-width="1.04742" stroke-linecap="round" stroke-linejoin="round"/>
<path d="M425.714 288.457C425.714 288.457 414.34 289.991 409.42 294.847C404.499 299.704 400.205 308.688 398.058 316.982C395.911 325.277 394.365 355.719 397.432 357.252C400.499 358.786 426.328 360.332 430.66 358.53C434.992 356.728 430.353 342.236 430.353 336.702C430.353 331.168 435.274 312.42 434.353 301.979C433.433 291.537 425.714 288.457 425.714 288.457Z" fill="#BC6C9A" stroke="#141414" stroke-width="1.04742" stroke-linecap="round" stroke-linejoin="round"/>
<path d="M384.678 320.407C384.538 307.755 379.375 296.956 372.512 292.291V289.735L353.597 289.927C342.952 290.042 334.427 303.985 334.645 320.982C334.862 337.98 343.591 351.744 354.249 351.654L373.164 351.463V348.907C379.809 343.961 384.742 333.06 384.678 320.407Z" fill="#141414" stroke="#141414" stroke-width="1.04742" stroke-linecap="round" stroke-linejoin="round"/>
<path d="M393.164 320.318C393.023 307.027 387.899 295.678 380.691 290.745V288.023L372.588 288.112C361.393 288.227 352.485 302.835 352.677 320.74C352.869 338.644 362.083 353.06 373.278 352.945L381.381 352.856V350.146C388.423 345.06 393.305 333.558 393.164 320.318Z" fill="white" stroke="#141414" stroke-width="1.04742" stroke-linecap="round" stroke-linejoin="round"/>
<path d="M401.292 320.228C401.484 338.12 392.563 352.741 381.381 352.856C370.198 352.971 360.933 338.555 360.779 320.663C360.626 302.771 369.508 288.151 380.691 288.023C391.873 287.895 401.075 302.324 401.292 320.228Z" fill="#737373" stroke="#141414" stroke-width="1.04742" stroke-linecap="round" stroke-linejoin="round"/>
<path d="M396.639 319.679C396.729 328.152 392.499 335.079 387.195 335.143C381.891 335.207 377.521 328.357 377.431 319.807C377.342 311.257 381.572 304.471 386.876 304.343C392.179 304.215 396.55 311.193 396.639 319.679Z" fill="#141414" stroke="#141414" stroke-width="1.04742" stroke-linecap="round" stroke-linejoin="round"/>
<path d="M547.24 383.4C548.295 375.522 548.743 367.575 548.582 359.629C544.428 361.546 520.197 362.249 517.973 362.3C515.75 362.351 491.519 361.546 487.365 359.629C487.182 367.574 487.61 375.521 488.643 383.4C490.318 393.765 505.04 435.261 505.372 437.268C505.803 439.203 506.363 441.107 507.047 442.968C507.047 442.968 498.676 448.987 494.995 451.326C491.314 453.664 493.998 454.674 497.679 454.674C501.359 454.674 509.053 453.664 511.392 453.664C513.462 453.664 517.066 451.862 517.91 451.428C518.753 451.862 522.357 453.664 524.415 453.664C526.766 453.664 534.46 454.674 538.14 454.674C541.821 454.674 544.53 453.664 540.824 451.326C537.118 448.987 528.773 442.968 528.773 442.968C529.457 441.107 530.016 439.203 530.447 437.268C530.843 435.223 545.565 393.726 547.24 383.4Z" fill="#141414" stroke="#141414" stroke-width="1.04742" stroke-linecap="round" stroke-linejoin="round"/>
<path d="M512.912 294.566C512.912 294.566 499.966 298.796 493.282 303.039C486.598 307.282 479.888 330.261 479.888 331.155C479.504 332.756 478.982 334.321 478.329 335.833C478.329 335.833 471.632 334.274 470.303 339.846C468.974 345.418 476.987 352.562 481.23 352.792C485.473 353.022 486.802 351.68 486.802 351.68C486.802 351.68 484.131 357.035 485.243 359.259C486.355 361.482 495.735 369.751 514.254 369.483C532.772 369.214 546.204 366.134 548.159 363.463C550.114 360.792 550.395 355.207 550.395 355.207C550.395 355.207 557.309 353.418 559.763 348.958C562.217 344.498 561.77 339.807 560.428 335.13C559.086 330.452 552.172 316.867 547.494 309.276C542.817 301.685 532.989 297.454 528.324 296.113C523.66 294.771 516.03 294.566 512.912 294.566Z" fill="#BC6C9A" stroke="#141414" stroke-width="1.04742" stroke-linecap="round" stroke-linejoin="round"/>
<path d="M516.836 313.353C518.689 312.739 524.504 307.576 526.74 302.413C527.625 300.436 528.248 298.353 528.593 296.215L528.3 296.125C523.622 294.783 516.031 294.566 512.964 294.566C512.964 294.566 510.254 295.448 506.676 296.815C506.698 299.578 507.217 302.314 508.209 304.892C510.229 310.056 515.034 313.979 516.836 313.353Z" fill="white" stroke="#141414" stroke-width="1.04742" stroke-linecap="round" stroke-linejoin="round"/>
<path d="M538.115 323.781C538.115 323.781 543.47 352.345 549.541 355.284" stroke="#141414" stroke-width="1.04742" stroke-linecap="round" stroke-linejoin="round"/>
<path d="M486.803 351.68C486.803 351.68 493.499 326.465 493.947 324.011" stroke="#141414" stroke-width="1.04742" stroke-linecap="round" stroke-linejoin="round"/>
<path d="M546.767 336.689C546.767 336.689 543.061 337.52 543.061 340.204" stroke="#141414" stroke-width="1.04742" stroke-linecap="round" stroke-linejoin="round"/>
<path d="M483.799 337.098C483.799 337.098 487.927 339.782 487.518 343.91" stroke="#141414" stroke-width="1.04742" stroke-linecap="round" stroke-linejoin="round"/>
<path d="M511.456 453.69C513.526 453.69 517.13 451.888 517.973 451.454C518.817 451.888 522.421 453.69 524.479 453.69C526.83 453.69 534.524 454.7 538.204 454.7C541.885 454.7 544.594 453.69 540.888 451.351C537.68 449.319 530.958 444.514 529.245 443.287C525.296 446.891 517.488 445.996 517.488 445.996C515.906 445.758 514.34 445.425 512.798 445C510.459 444.322 507.11 442.993 507.11 442.993C507.11 442.993 498.74 449.013 495.059 451.351C491.378 453.69 494.062 454.7 497.743 454.7C501.423 454.7 509.117 453.69 511.456 453.69Z" fill="#BC6C9A" stroke="#141414" stroke-width="1.04742" stroke-linecap="round" stroke-linejoin="round"/>
<path d="M517.488 443.044V384.691" stroke="white" stroke-width="1.04742" stroke-linecap="round" stroke-linejoin="round"/>
<path d="M517.974 451.39L517.488 445.933V443.044" stroke="#141414" stroke-width="1.04742" stroke-linecap="round" stroke-linejoin="round"/>
<path d="M512.797 382.684H522.497" stroke="white" stroke-width="1.04742" stroke-linecap="round" stroke-linejoin="round"/>
<path d="M500.12 261.083C500.12 261.083 493.168 265.249 494.203 268.904C495.238 272.559 498.382 273.262 497.692 275.294C497.002 277.326 494.586 278.604 497.334 279.882C498.899 280.583 500.536 281.11 502.216 281.454C502.216 281.454 504.772 290.323 509.168 291.882C513.564 293.442 521.181 292.406 526.574 291.716C528.396 291.538 530.121 290.809 531.518 289.626C532.915 288.444 533.919 286.864 534.396 285.096C534.92 283.192 532.134 285.454 530.741 283.358C529.348 281.262 531.444 275.882 533.003 271.179C534.562 266.476 529.872 257.606 523.788 254.654C517.705 251.702 506.088 253.248 500.12 261.083Z" fill="#141414" stroke="#141414" stroke-width="1.04742" stroke-linecap="round" stroke-linejoin="round"/>
<path d="M511.801 291.384C510.917 294.301 510.318 297.297 510.012 300.33C509.782 304.164 512.913 308.369 516.261 308.139C519.61 307.909 522.498 301.225 522.945 297.915C523.393 294.605 521.833 285.646 521.833 285.646C521.833 285.646 516.721 285.876 514.689 287.652C513.496 288.699 512.516 289.966 511.801 291.384Z" fill="white" stroke="#141414" stroke-width="1.04742" stroke-linecap="round" stroke-linejoin="round"/>
<path d="M507.264 265.952C507.264 265.952 507.43 271.166 512.657 276.176C515.799 279.214 519.525 281.584 523.609 283.141C523.518 284.283 523.224 285.4 522.74 286.438C522.513 286.872 522.159 287.227 521.725 287.455C521.292 287.684 520.799 287.775 520.312 287.716H518.561C518.561 287.716 516.005 293.71 512.913 294.579C509.82 295.448 502.216 294.847 501.168 287.192C500.12 279.537 499.954 273.275 500.823 271.703C501.692 270.131 507.264 265.952 507.264 265.952Z" fill="white" stroke="#141414" stroke-width="1.04742" stroke-linecap="round" stroke-linejoin="round"/>
<path d="M561.948 333.302C562.741 331.704 563.223 329.969 563.367 328.19C563.367 325.864 559.047 322.529 558.255 321.698C557.462 320.867 556.67 320.957 556.504 322.12C556.502 322.773 556.633 323.419 556.89 324.019C557.148 324.619 557.525 325.16 557.999 325.609C558.647 326.119 559.117 326.822 559.341 327.615C559.418 328.19 557.91 331.015 558.664 332.842C559.418 334.67 561.539 335.219 561.948 333.302Z" fill="white" stroke="#141414" stroke-width="1.04742" stroke-linecap="round" stroke-linejoin="round"/>
<path d="M388.869 320.254C388.869 320.254 407.681 326.273 418.992 340.331C430.302 354.389 437.727 352.37 451.785 347.693C465.843 343.015 471.198 326.273 490.611 340.331C510.024 354.389 514.036 359.731 530.101 351.706C546.165 343.68 554.856 324.267 569.591 330.951C584.326 337.635 577.617 371.847 578.959 388.461C580.301 405.075 578.282 446.699 581.63 452.054C584.978 457.409 619.114 453.332 619.114 453.332" stroke="#141414" stroke-width="3.14226" stroke-linecap="round" stroke-linejoin="round"/>
<path d="M424.103 297.915C424.103 297.915 420.359 291.806 414.838 293.403C408.998 295.09 405.981 303.436 404.614 308.637C403.247 313.838 402.326 319.462 399.821 324.305C399.821 324.305 388.754 324.114 382.581 322.324C377.871 320.856 373.239 319.15 368.702 317.212C368.702 317.212 366.517 314.158 364.97 313.557C363.424 312.957 359.411 311.781 359.117 312.701C358.823 313.621 363.769 316.65 363.769 316.65C363.769 316.65 354.567 317.928 353.647 318.912C352.727 319.896 360.152 322.836 360.152 322.836C360.152 322.836 362.926 323.73 369.673 322.12C369.673 322.12 394.428 337.839 399.361 339.641C404.294 341.443 407.029 342.018 410.391 335.526C413.752 329.034 424.909 312.931 426.685 306.452" fill="#BC6C9A"/>
<path d="M424.103 297.915C424.103 297.915 420.359 291.806 414.838 293.403C408.998 295.09 405.981 303.436 404.614 308.637C403.247 313.838 402.326 319.462 399.821 324.305C399.821 324.305 388.754 324.114 382.581 322.324C377.871 320.856 373.239 319.15 368.702 317.212C368.702 317.212 366.517 314.158 364.97 313.557C363.424 312.957 359.411 311.781 359.117 312.701C358.823 313.621 363.769 316.65 363.769 316.65C363.769 316.65 354.567 317.928 353.647 318.912C352.727 319.896 360.152 322.836 360.152 322.836C360.152 322.836 362.926 323.73 369.673 322.12C369.673 322.12 394.428 337.839 399.361 339.641C404.294 341.443 407.029 342.018 410.391 335.526C413.752 329.034 424.909 312.931 426.685 306.452" stroke="#141414" stroke-width="1.04742" stroke-linecap="round" stroke-linejoin="round"/>
<path d="M375.131 319.819C371.514 318.465 368.741 317.263 368.741 317.263C368.741 317.263 366.556 314.209 365.009 313.608C363.463 313.008 359.45 311.832 359.156 312.752C358.862 313.672 363.808 316.701 363.808 316.701C363.808 316.701 354.607 317.979 353.686 318.963C352.766 319.947 360.191 322.887 360.191 322.887C360.191 322.887 362.965 323.781 369.713 322.171L373.176 324.356L375.131 319.819Z" fill="white" stroke="#141414" stroke-width="1.04742" stroke-linecap="round" stroke-linejoin="round"/>
<path d="M470.548 335.654C469.754 334.055 469.273 332.321 469.129 330.542C469.129 328.216 473.461 324.893 474.241 324.062C475.02 323.232 475.813 323.321 475.979 324.484C475.981 325.137 475.85 325.783 475.593 326.383C475.335 326.984 474.958 327.525 474.484 327.973C473.836 328.484 473.366 329.186 473.142 329.98C473.065 330.542 474.573 333.379 473.819 335.207C473.065 337.034 470.956 337.558 470.548 335.654Z" fill="white" stroke="#141414" stroke-width="1.04742" stroke-linecap="round" stroke-linejoin="round"/>
<path d="M473.524 328.638C473.524 328.638 469.959 335.219 472.029 337.584C474.1 339.948 476.106 332.267 476.489 330.146C476.873 328.024 474.841 325.89 473.524 328.638Z" fill="white" stroke="#141414" stroke-width="1.04742" stroke-linecap="round" stroke-linejoin="round"/>
<path d="M476.464 331.002C476.464 331.002 472.898 337.584 474.969 339.948C477.039 342.312 479.045 334.631 479.429 332.51C479.812 330.389 477.78 328.178 476.464 331.002Z" fill="white" stroke="#141414" stroke-width="1.04742" stroke-linecap="round" stroke-linejoin="round"/>
<path d="M479.696 331.551C479.696 331.551 476.131 338.133 478.201 340.497C480.271 342.862 482.278 335.181 482.661 333.06C483.045 330.938 481.013 328.791 479.696 331.551Z" fill="white" stroke="#141414" stroke-width="1.04742" stroke-linecap="round" stroke-linejoin="round"/>
<path d="M483.837 331.603C483.837 331.603 480.515 336.715 482.329 338.644C484.144 340.574 486.099 334.504 486.483 332.753C486.866 331.002 485.064 329.302 483.837 331.603Z" fill="white" stroke="#141414" stroke-width="1.04742" stroke-linecap="round" stroke-linejoin="round"/>
<path d="M559.573 328.893C559.573 328.893 563.138 335.475 561.068 337.839C558.998 340.204 556.991 332.51 556.608 330.389C556.224 328.267 558.257 326.133 559.573 328.893Z" fill="white" stroke="#141414" stroke-width="1.04742" stroke-linecap="round" stroke-linejoin="round"/>
<path d="M556.633 331.194C556.633 331.194 560.199 337.775 558.129 340.14C556.058 342.504 554.052 334.81 553.668 332.689C553.285 330.567 555.317 328.446 556.633 331.194Z" fill="white" stroke="#141414" stroke-width="1.04742" stroke-linecap="round" stroke-linejoin="round"/>
<path d="M553.373 331.807C553.373 331.807 556.939 338.389 554.869 340.753C552.798 343.117 550.792 335.437 550.421 333.302C550.051 331.168 552.095 329.047 553.373 331.807Z" fill="white" stroke="#141414" stroke-width="1.04742" stroke-linecap="round" stroke-linejoin="round"/>
<path d="M549.259 331.858C549.259 331.858 552.582 337.034 550.767 338.9C548.952 340.766 546.997 334.759 546.626 333.008C546.255 331.258 548.032 329.558 549.259 331.858Z" fill="white" stroke="#141414" stroke-width="1.04742" stroke-linecap="round" stroke-linejoin="round"/>
<path d="M109.55 404.679V411.938C107.031 414.691 105.219 418.016 104.272 421.625C102.725 427.555 97.8816 453.077 99.1596 453.741C100.438 454.406 112.464 457.153 116.298 456.578C120.694 455.914 124.438 456.144 122.228 453.716C120.017 451.287 108.4 444.501 108.4 444.501C108.4 444.501 121.18 426.021 124.017 419.197C126.854 412.372 127.314 401.816 127.314 401.816L110.163 401.164L109.55 404.679Z" fill="white" stroke="#141414" stroke-width="1.04742" stroke-linecap="round" stroke-linejoin="round"/>
<path d="M116.298 456.578C120.694 455.914 124.439 456.144 122.228 453.716C120.017 451.287 108.4 444.501 108.4 444.501L107.966 447.134L99.5947 446.111C98.9812 450.38 98.7128 453.511 99.1601 453.779C100.528 454.393 112.464 457.153 116.298 456.578Z" fill="#141414" stroke="#141414" stroke-width="1.04742" stroke-linecap="round" stroke-linejoin="round"/>
<path d="M151.571 408.436L153.552 411.963C152.731 413.547 152.247 415.283 152.133 417.063C152.019 418.843 152.275 420.627 152.887 422.302C154.868 428.462 159.494 451.121 159.494 452.438C159.494 453.754 162.344 454.636 164.606 454.636C166.868 454.636 173.131 455.07 174.012 455.07C174.894 455.07 181.272 456.169 183.47 454.853C185.668 453.537 180.671 450.891 177.374 449.358C174.076 447.824 166.817 443.862 166.817 443.862C166.817 443.862 168.568 425.817 168.568 417.893C168.568 409.97 170.332 407.337 167.916 402.493C165.501 397.65 150.318 404.704 150.318 404.704L151.571 408.436Z" fill="white" stroke="#141414" stroke-width="1.04742" stroke-linecap="round" stroke-linejoin="round"/>
<path d="M177.31 449.358C174.013 447.811 166.754 443.862 166.754 443.862L165.872 447.159L158.805 448.437C159.226 450.636 159.495 452.144 159.495 452.45C159.495 453.728 162.345 454.649 164.607 454.649C166.869 454.649 173.131 455.083 174.013 455.083C174.895 455.083 181.272 456.182 183.47 454.866C185.668 453.549 180.607 450.891 177.31 449.358Z" fill="#141414" stroke="#141414" stroke-width="1.04742" stroke-linecap="round" stroke-linejoin="round"/>
<path d="M139.723 261.99C137.998 259.043 136.027 256.247 133.831 253.632C130.802 250.22 121.307 250.411 117.14 254.91C112.974 259.408 114.291 267.434 115.862 269.709C117.434 271.984 120.604 282.617 120.604 282.617L121.358 290.208L139.007 296.47L135.403 284.138C135.403 284.138 142.24 282.86 142.803 280.725C143.365 278.591 141.665 271.422 141.665 271.422C141.665 271.422 143.94 269.901 143.748 268.572C143.557 267.243 139.723 261.99 139.723 261.99Z" fill="white" stroke="#141414" stroke-width="1.04742" stroke-linecap="round" stroke-linejoin="round"/>
<path d="M119.415 270.169C119.415 270.169 122.432 272.725 124.08 269.799C125.729 266.872 126.981 264.009 126.981 261.53C126.981 259.051 120.783 256.993 124.911 255.332C129.039 253.67 132.017 257.364 133.857 253.657C135.697 249.951 134.023 249.555 124.106 249.555C114.188 249.555 109.23 254.514 111.326 260.712C113.002 265.289 115.076 269.711 117.524 273.927L119.415 270.169Z" fill="#141414" stroke="#141414" stroke-width="1.04742" stroke-linecap="round" stroke-linejoin="round"/>
<path d="M140.285 266.374C140.285 267.311 140.007 268.228 139.486 269.008C138.965 269.787 138.225 270.395 137.359 270.754C136.492 271.113 135.539 271.207 134.619 271.024C133.699 270.841 132.855 270.389 132.191 269.726C131.528 269.063 131.077 268.218 130.894 267.299C130.711 266.379 130.805 265.425 131.164 264.559C131.523 263.693 132.13 262.952 132.91 262.431C133.69 261.91 134.606 261.632 135.544 261.632C136.802 261.632 138.008 262.132 138.897 263.021C139.786 263.91 140.285 265.116 140.285 266.374Z" stroke="#141414" stroke-width="1.04742" stroke-linecap="round" stroke-linejoin="round"/>
<path d="M139.596 262.169C140.147 261.943 140.738 261.826 141.334 261.824C142.321 261.826 143.28 262.155 144.06 262.76C144.84 263.365 145.397 264.212 145.644 265.168C145.891 266.124 145.814 267.135 145.425 268.042C145.036 268.95 144.356 269.702 143.494 270.182" stroke="#141414" stroke-width="1.04742" stroke-linecap="round" stroke-linejoin="round"/>
<path d="M130.803 266.374L119.416 270.169" stroke="#141414" stroke-width="1.04742" stroke-linecap="round" stroke-linejoin="round"/>
<path d="M122.688 272.636C122.688 272.636 120.413 267.894 118.138 268.802C115.864 269.709 117.001 277.16 119.276 277.914C120.04 278.086 120.835 278.073 121.593 277.875C122.351 277.677 123.051 277.3 123.634 276.776C123.634 276.776 125.538 280.764 127.813 281.888" fill="white"/>
<path d="M122.688 272.636C122.688 272.636 120.413 267.894 118.138 268.802C115.864 269.709 117.001 277.16 119.276 277.914C120.04 278.086 120.835 278.073 121.593 277.875C122.351 277.677 123.051 277.3 123.634 276.776C123.634 276.776 125.538 280.764 127.813 281.888" stroke="#141414" stroke-width="1.04742" stroke-linecap="round" stroke-linejoin="round"/>
<path d="M107.761 357.84L106.343 376.013L102.1 402.915C102.1 402.915 112.017 410.698 121.27 410.698C130.522 410.698 133.066 409.522 133.066 409.522L138.254 381.918L143.443 410.941C143.443 410.941 153.667 409.292 160.44 407.631C165.15 406.32 169.614 404.248 173.655 401.496L159.967 365.866L157.002 347.488C157.002 347.488 141.666 348.907 132.452 349.38C123.238 349.853 110.982 347.488 110.982 347.488L107.761 357.84Z" fill="#BC6C9A" stroke="#141414" stroke-width="1.04742" stroke-linecap="round" stroke-linejoin="round"/>
<path d="M117.487 285.224C117.487 285.224 139.213 292.803 145.922 300.164C149.628 304.253 153.782 332.242 155.277 339.079C156.772 345.916 159.379 359.527 159.379 359.527C159.379 359.527 146.127 365.508 135.877 365.725C125.627 365.943 105.959 361.239 105.959 361.239C105.959 361.239 108.298 330.913 108.298 316.816C108.298 302.72 108.515 293.518 110.854 289.032C110.866 289.071 114.713 284.79 117.487 285.224Z" fill="#141414" stroke="#141414" stroke-width="1.04742" stroke-linecap="round" stroke-linejoin="round"/>
<path d="M111.774 363.438C111.774 363.438 112.95 383.259 111.774 390.582C110.949 395.307 109.523 399.907 107.531 404.27" stroke="#141414" stroke-width="1.04742" stroke-linecap="round" stroke-linejoin="round"/>
<path d="M112.246 372.882C114.021 372.273 115.606 371.212 116.847 369.805C118.089 368.398 118.943 366.693 119.326 364.856" stroke="#141414" stroke-width="1.04742" stroke-linecap="round" stroke-linejoin="round"/>
<path d="M103.275 399.081C103.275 399.081 115.084 409.228 133.487 405.471" stroke="#141414" stroke-width="1.04742" stroke-linecap="round" stroke-linejoin="round"/>
<path d="M142.932 404.973C142.932 404.973 162.281 402.851 170.779 397.19" stroke="#141414" stroke-width="1.04742" stroke-linecap="round" stroke-linejoin="round"/>
<path d="M229.477 276.048C229.477 276.048 227.612 277.428 221.106 282.182C214.601 286.937 219.726 294.119 219.726 294.119C219.726 294.119 215.074 294.847 208.863 301.378C202.652 307.909 211.637 319.117 220.033 320.867C228.429 322.618 238.244 312.228 241.184 302.592C244.123 292.956 240.238 278.425 238.283 275.422C236.327 272.418 229.477 276.048 229.477 276.048Z" fill="#141414" stroke="#141414" stroke-width="1.04742" stroke-linecap="round" stroke-linejoin="round"/>
<path d="M254.118 274.77C254.118 274.77 257.352 269.773 254.425 262.527C251.498 255.28 242.757 251.97 234.245 257.223C231.408 258.911 229.208 261.488 227.986 264.555C226.763 267.621 226.587 271.005 227.485 274.182C228.315 277.53 232.507 282.681 233.389 282.757C234.271 282.834 241.926 285.62 247.153 283.179C252.38 280.738 254.118 274.77 254.118 274.77Z" fill="#141414" stroke="#141414" stroke-width="1.04742" stroke-linecap="round" stroke-linejoin="round"/>
<path d="M216.506 443.466C216.506 443.466 222.576 452.91 233.12 454.521C243.663 456.131 234.181 446.674 232.404 445.242C230.628 443.811 217.937 440.718 216.506 443.466Z" fill="#737373" stroke="#141414" stroke-width="1.04742" stroke-linecap="round" stroke-linejoin="round"/>
<path d="M272.675 445.894C272.675 445.894 284.266 448.744 283.371 451.249C282.477 453.754 273.032 453.562 267.511 452.131C261.991 450.699 256.802 448.565 257.518 446.252C258.233 443.939 272.675 445.894 272.675 445.894Z" fill="#737373" stroke="#141414" stroke-width="1.04742" stroke-linecap="round" stroke-linejoin="round"/>
<path d="M239.714 293.557C239.714 293.557 224.199 295.831 221.361 301.314C218.524 306.797 222.524 336.664 222.524 336.664C222.524 336.664 215.904 351.271 215.815 360.677C215.725 370.083 219.917 386.633 219.585 390.761C219.253 394.889 215.01 441.881 215.01 443.159C215.01 444.437 223.956 447.3 236.851 448.834C249.746 450.367 274.411 445.779 274.411 445.779C274.411 445.779 273.926 418.047 275.216 401.509C276.507 384.972 274.667 370.109 271.382 363.936C268.098 357.763 252.8 335.539 252.8 335.539C252.8 335.539 260.213 322.094 260.673 316.216C261.133 310.337 258.743 307.27 253.145 300.509C251.482 298.515 249.437 296.872 247.13 295.679C244.824 294.485 242.302 293.763 239.714 293.557Z" fill="#BC6C9A" stroke="#141414" stroke-width="1.04742" stroke-linecap="round" stroke-linejoin="round"/>
<path d="M252.84 335.552C252.84 335.552 260.252 322.107 260.713 316.228C261.173 310.35 258.783 307.282 253.185 300.522C252.917 300.189 252.636 299.895 252.354 299.589L252.15 299.78C246.399 309.174 227.382 325.225 221.721 329.903C222.155 333.903 222.526 336.664 222.526 336.664C222.526 336.664 215.906 351.271 215.816 360.677C215.922 364.963 216.35 369.235 217.094 373.457C230.526 365.789 248.495 351.437 258.22 343.437C255.179 338.938 252.84 335.552 252.84 335.552Z" fill="#737373" stroke="#141414" stroke-width="1.04742" stroke-linecap="round" stroke-linejoin="round"/>
<path d="M236.852 282.591C237.28 286.099 237.515 289.627 237.554 293.16C237.35 295.78 238.193 301.761 242.666 303.64C247.139 305.519 249.951 302.899 249.938 300.266C249.776 298.092 249.347 295.946 248.66 293.876L248.788 286.655C248.788 286.655 241.069 281.825 236.852 282.591Z" fill="white" stroke="#141414" stroke-width="1.04742" stroke-linecap="round" stroke-linejoin="round"/>
<path d="M232.838 277.901C232.838 277.901 229.553 275.013 229.451 279.179C229.349 283.345 233.183 284.726 234.026 285.007C234.738 285.104 235.461 284.925 236.046 284.508C236.046 284.508 242.001 289.62 246.781 289.953C251.561 290.285 253.503 288.074 254.628 279.396C255.752 270.719 246.794 261.913 246.794 261.913C246.794 261.913 239.126 276.048 232.838 277.901Z" fill="white" stroke="#141414" stroke-width="1.04742" stroke-linecap="round" stroke-linejoin="round"/>
<path d="M159.75 359.348C159.706 357.867 159.949 356.392 160.465 355.003C161.258 353.265 165.577 352.268 166.536 351.936C167.494 351.603 167.98 351.936 167.699 352.843C167.475 353.331 167.155 353.768 166.757 354.128C166.36 354.489 165.893 354.764 165.386 354.939C164.725 355.098 164.13 355.46 163.686 355.974C163.443 356.383 163.596 359.003 162.408 360.115C161.219 361.227 159.353 360.92 159.75 359.348Z" fill="white" stroke="#141414" stroke-width="1.04742" stroke-linecap="round" stroke-linejoin="round"/>
<path d="M257.696 320.919C257.696 320.919 242.36 318.912 235.599 329.622C228.838 340.331 216.199 377.802 192.773 383.835C169.348 389.867 162.651 341.661 148.593 343.002C135.199 344.28 125.844 343.002 117.806 357.725C113.512 365.61 92.0414 451.709 81.894 452.591C49.5734 455.415 28.7676 453.575 28.7676 453.575" stroke="#141414" stroke-width="3.14226" stroke-linecap="round" stroke-linejoin="round"/>
<path d="M118.483 285.837C118.483 285.837 114.943 284.419 110.214 287.243C105.485 290.068 92.7566 320.995 93.7023 324.305C94.6481 327.615 108.093 333.75 115.646 335.871C123.199 337.993 136.886 340.6 136.886 340.6C136.886 340.6 141.129 347.207 142.547 347.437C144.611 347.409 146.666 347.174 148.682 346.734C148.682 346.734 151.238 348.856 152.222 346.491C153.206 344.127 151.276 341.073 149.155 338.708C147.033 336.344 138.062 335.168 138.062 335.168L113.741 318.401L123.965 299.525" fill="#141414"/>
<path d="M118.483 285.837C118.483 285.837 114.943 284.419 110.214 287.243C105.485 290.068 92.7566 320.995 93.7023 324.305C94.6481 327.615 108.093 333.75 115.646 335.871C123.199 337.993 136.886 340.6 136.886 340.6C136.886 340.6 141.129 347.207 142.547 347.437C144.611 347.409 146.666 347.174 148.682 346.734C148.682 346.734 151.238 348.856 152.222 346.491C153.206 344.127 151.276 341.073 149.155 338.708C147.033 336.344 138.062 335.168 138.062 335.168L113.741 318.401L123.965 299.525" stroke="#141414" stroke-width="1.04742" stroke-linecap="round" stroke-linejoin="round"/>
<path d="M142.548 347.424C144.611 347.396 146.666 347.161 148.682 346.721C148.682 346.721 151.238 348.843 152.223 346.479C153.207 344.114 151.277 341.06 149.155 338.696C147.034 336.331 138.062 335.156 138.062 335.156L113.742 318.401L117.371 311.64C108.285 305.979 102.253 306.401 98.9938 307.538C95.7349 315.359 93.2556 322.772 93.6901 324.293C94.6359 327.603 108.08 333.737 115.633 335.858C123.186 337.98 136.874 340.587 136.874 340.587C136.874 340.587 141.13 347.194 142.548 347.424Z" fill="white" stroke="#141414" stroke-width="1.04742" stroke-linecap="round" stroke-linejoin="round"/>
<path d="M294.566 321.443C293.531 310.286 288.176 301.122 281.786 297.48L281.582 295.205L264.891 296.752C255.498 297.621 249.018 310.516 250.411 325.545C251.804 340.574 260.546 352.038 269.939 351.105L286.63 349.559L286.412 347.284C292.036 342.581 295.601 332.6 294.566 321.443Z" fill="#141414" stroke="#141414" stroke-width="1.04742" stroke-linecap="round" stroke-linejoin="round"/>
<path d="M302.12 320.778C301.033 309.059 295.73 299.41 288.969 295.576L288.739 293.186L281.595 293.851C271.729 294.771 264.917 308.305 266.374 324.101C267.831 339.897 277.033 351.948 286.899 351.028L294.043 350.364L293.825 347.974C299.73 342.939 303.206 332.459 302.12 320.778Z" fill="white" stroke="#141414" stroke-width="1.04742" stroke-linecap="round" stroke-linejoin="round"/>
<path d="M309.276 320.075C310.746 335.871 303.934 349.405 294.055 350.325C284.176 351.246 274.988 339.181 273.492 323.398C271.997 307.615 278.834 294.004 288.701 293.148C298.567 292.291 307.794 304.292 309.276 320.075Z" fill="white" stroke="#141414" stroke-width="1.04742" stroke-linecap="round" stroke-linejoin="round"/>
<path d="M316.943 310.848L289.223 313.404C288.835 313.441 288.442 313.401 288.069 313.286C287.696 313.171 287.349 312.983 287.049 312.734C286.749 312.484 286.5 312.178 286.319 311.833C286.137 311.487 286.025 311.109 285.99 310.72C285.953 310.331 285.993 309.939 286.108 309.566C286.223 309.193 286.411 308.846 286.66 308.546C286.909 308.246 287.216 307.997 287.561 307.816C287.907 307.634 288.285 307.522 288.674 307.487L316.393 304.931C316.782 304.894 317.174 304.934 317.547 305.049C317.921 305.164 318.267 305.352 318.568 305.601C318.868 305.85 319.116 306.157 319.298 306.502C319.48 306.848 319.592 307.226 319.627 307.615C319.664 308.003 319.624 308.395 319.509 308.769C319.394 309.142 319.206 309.488 318.957 309.789C318.707 310.089 318.401 310.337 318.055 310.519C317.71 310.701 317.332 310.813 316.943 310.848Z" fill="#737373" stroke="#141414" stroke-width="1.04742" stroke-linecap="round" stroke-linejoin="round"/>
<path d="M319.002 332.817L291.282 335.373C290.893 335.41 290.501 335.369 290.128 335.254C289.755 335.139 289.408 334.952 289.108 334.703C288.807 334.453 288.559 334.147 288.377 333.801C288.195 333.456 288.084 333.078 288.048 332.689C288.012 332.3 288.052 331.908 288.167 331.535C288.282 331.162 288.469 330.815 288.719 330.515C288.968 330.214 289.274 329.966 289.62 329.784C289.965 329.603 290.343 329.491 290.732 329.456L318.452 326.9C319.236 326.832 320.014 327.076 320.62 327.578C321.225 328.08 321.608 328.801 321.685 329.583C321.722 329.972 321.682 330.364 321.567 330.737C321.452 331.11 321.265 331.457 321.015 331.758C320.766 332.058 320.46 332.306 320.114 332.488C319.768 332.67 319.39 332.781 319.002 332.817Z" fill="#737373" stroke="#141414" stroke-width="1.04742" stroke-linecap="round" stroke-linejoin="round"/>
<path d="M230.129 295.64C230.129 295.64 223.458 296.918 220.301 300.752C217.144 304.586 210.665 334.171 212.16 337.571C213.655 340.97 237.618 345.239 245.017 345.852C250.968 346.088 256.927 345.823 262.833 345.06C262.833 345.06 269.223 344.894 270.974 344.6C272.725 344.306 275.945 342.581 275.996 341.929C276.047 341.277 275.728 339.718 273.338 339.526C270.948 339.335 265.823 337.622 265.172 337.571C266.707 337.167 268.265 336.851 269.836 336.625C269.836 336.625 270.169 335.347 267.536 335.347C264.903 335.347 262.513 335.168 261.516 336.625C260.804 337.76 260.196 338.958 259.702 340.204C259.702 340.204 244.941 341.239 236.928 337.328C228.915 333.417 226.384 332.114 226.384 332.114L232.135 309.11" fill="#BC6C9A"/>
<path d="M230.129 295.64C230.129 295.64 223.458 296.918 220.301 300.752C217.144 304.586 210.665 334.171 212.16 337.571C213.655 340.97 237.618 345.239 245.017 345.852C250.968 346.088 256.927 345.823 262.833 345.06C262.833 345.06 269.223 344.894 270.974 344.6C272.725 344.306 275.945 342.581 275.996 341.929C276.047 341.277 275.728 339.718 273.338 339.526C270.948 339.335 265.823 337.622 265.172 337.571C266.707 337.167 268.265 336.851 269.836 336.625C269.836 336.625 270.169 335.347 267.536 335.347C264.903 335.347 262.513 335.168 261.516 336.625C260.804 337.76 260.196 338.958 259.702 340.204C259.702 340.204 244.941 341.239 236.928 337.328C228.915 333.417 226.384 332.114 226.384 332.114L232.135 309.11" stroke="#141414" stroke-width="1.04742" stroke-linecap="round" stroke-linejoin="round"/>
<path d="M270.935 344.638C272.711 344.344 275.906 342.619 275.958 341.967C276.009 341.315 275.689 339.756 273.299 339.565C270.909 339.373 265.785 337.66 265.133 337.609C266.668 337.205 268.226 336.89 269.798 336.664C269.798 336.664 270.13 335.386 267.497 335.386C264.864 335.386 262.475 335.207 261.478 336.664C260.765 337.799 260.158 338.996 259.663 340.242C259.663 340.242 244.902 341.277 236.889 337.366C228.876 333.456 226.346 332.152 226.346 332.152L229.847 318.094C225.289 316.218 220.479 315.025 215.572 314.554C213.182 324.19 211.227 335.539 212.121 337.558C213.604 340.958 237.579 345.226 244.979 345.84C250.929 346.075 256.888 345.81 262.794 345.047C262.794 345.047 269.197 344.932 270.935 344.638Z" fill="white" stroke="#141414" stroke-width="1.04742" stroke-linecap="round" stroke-linejoin="round"/>
<path d="M162.996 356.869C162.996 356.869 158.063 360.562 158.817 363.003C159.571 365.444 163.686 360.447 164.708 358.977C165.731 357.508 164.926 355.284 162.996 356.869Z" fill="white" stroke="#141414" stroke-width="1.04742" stroke-linecap="round" stroke-linejoin="round"/>
<path d="M163.968 360.179C163.968 360.179 159.048 363.872 159.789 366.313C160.53 368.754 164.671 363.757 165.681 362.287C166.69 360.818 165.898 358.568 163.968 360.179Z" fill="white" stroke="#141414" stroke-width="1.04742" stroke-linecap="round" stroke-linejoin="round"/>
<path d="M166.305 362.326C166.305 362.326 161.385 366.019 162.139 368.46C162.893 370.901 167.008 365.904 168.031 364.434C169.053 362.965 168.248 360.716 166.305 362.326Z" fill="white" stroke="#141414" stroke-width="1.04742" stroke-linecap="round" stroke-linejoin="round"/>
<path d="M168.236 364.064C168.236 364.064 163.981 366.799 164.696 368.818C165.412 370.837 168.927 367.016 169.808 365.84C170.69 364.665 169.974 362.773 168.236 364.064Z" fill="white" stroke="#141414" stroke-width="1.04742" stroke-linecap="round" stroke-linejoin="round"/>
<path d="M197.96 571V565.312C197.96 563.776 198.192 562.544 198.656 561.616C199.12 560.688 199.808 560.016 200.72 559.6C201.648 559.184 202.792 558.976 204.152 558.976C205.528 558.976 206.672 559.184 207.584 559.6C208.496 560.016 209.184 560.688 209.648 561.616C210.112 562.544 210.344 563.776 210.344 565.312V571H197.96ZM200.192 569.992L199.064 569.008H209.24L208.112 569.992V565.36C208.112 564.256 207.992 563.384 207.752 562.744C207.528 562.104 207.12 561.656 206.528 561.4C205.952 561.128 205.16 560.992 204.152 560.992C203.144 560.992 202.352 561.128 201.776 561.4C201.2 561.656 200.792 562.104 200.552 562.744C200.312 563.384 200.192 564.256 200.192 565.36V569.992ZM201.44 557.032V554.704H203.696V557.032H201.44ZM204.728 557.032V554.704H206.984V557.032H204.728ZM212.257 571V569.008H221.137L219.433 570.52V565.6C219.433 564.432 219.297 563.512 219.025 562.84C218.769 562.168 218.345 561.696 217.753 561.424C217.161 561.136 216.361 560.992 215.353 560.992H213.409V558.976H215.353C216.681 558.976 217.817 559.192 218.761 559.624C219.705 560.04 220.425 560.736 220.921 561.712C221.417 562.672 221.665 563.968 221.665 565.6V571H212.257ZM234.56 571V569.008H237.128V571H234.56ZM228.656 576.496C228.08 576.496 227.472 576.448 226.832 576.352C226.208 576.272 225.52 576.152 224.768 575.992L225.104 574.192C225.952 574.288 226.656 574.36 227.216 574.408C227.776 574.456 228.256 574.48 228.656 574.48C229.936 574.48 230.864 574.24 231.44 573.76C232.032 573.28 232.328 572.584 232.328 571.672V560.392L233.24 560.992H229.472C228.624 560.992 227.96 561.096 227.48 561.304C227 561.496 226.664 561.888 226.472 562.48C226.28 563.056 226.184 563.904 226.184 565.024C226.184 566.128 226.28 566.968 226.472 567.544C226.664 568.104 226.992 568.488 227.456 568.696C227.936 568.904 228.608 569.008 229.472 569.008H232.328V571H229.472C228.08 571 226.984 570.792 226.184 570.376C225.384 569.944 224.808 569.288 224.456 568.408C224.12 567.512 223.952 566.384 223.952 565.024C223.952 563.648 224.12 562.512 224.456 561.616C224.808 560.72 225.384 560.056 226.184 559.624C226.984 559.192 228.08 558.976 229.472 558.976H234.56V571.648C234.56 572.672 234.32 573.544 233.84 574.264C233.36 575 232.68 575.552 231.8 575.92C230.92 576.304 229.872 576.496 228.656 576.496ZM237.128 571V569.008C237.336 569.008 237.464 569.096 237.512 569.272C237.576 569.448 237.608 569.688 237.608 569.992C237.608 570.296 237.576 570.544 237.512 570.736C237.464 570.912 237.336 571 237.128 571ZM237.125 571V569.008H247.637L246.917 569.608V564.064C246.917 563.056 246.597 562.296 245.957 561.784C245.333 561.272 244.357 561.016 243.029 561.016C242.629 561.016 242.053 561.048 241.301 561.112C240.565 561.176 239.781 561.272 238.949 561.4L238.709 559.576C239.365 559.416 240.077 559.28 240.845 559.168C241.613 559.04 242.357 558.976 243.077 558.976C244.325 558.976 245.397 559.176 246.293 559.576C247.205 559.976 247.909 560.56 248.405 561.328C248.901 562.08 249.149 562.992 249.149 564.064V571H237.125ZM237.125 571C236.917 571 236.789 570.912 236.741 570.736C236.677 570.544 236.645 570.296 236.645 569.992C236.645 569.688 236.677 569.448 236.741 569.272C236.789 569.096 236.917 569.008 237.125 569.008V571ZM242.093 575.536V573.208H244.349V575.536H242.093ZM262.146 571V569.008H264.714V571H262.146ZM256.242 576.496C255.666 576.496 255.058 576.448 254.418 576.352C253.794 576.272 253.106 576.152 252.354 575.992L252.69 574.192C253.538 574.288 254.242 574.36 254.802 574.408C255.362 574.456 255.842 574.48 256.242 574.48C257.522 574.48 258.45 574.24 259.026 573.76C259.618 573.28 259.914 572.584 259.914 571.672V560.392L260.826 560.992H257.058C256.21 560.992 255.546 561.096 255.066 561.304C254.586 561.496 254.25 561.888 254.058 562.48C253.866 563.056 253.77 563.904 253.77 565.024C253.77 566.128 253.866 566.968 254.058 567.544C254.25 568.104 254.578 568.488 255.042 568.696C255.522 568.904 256.194 569.008 257.058 569.008H259.914V571H257.058C255.666 571 254.57 570.792 253.77 570.376C252.97 569.944 252.394 569.288 252.042 568.408C251.706 567.512 251.538 566.384 251.538 565.024C251.538 563.648 251.706 562.512 252.042 561.616C252.394 560.72 252.97 560.056 253.77 559.624C254.57 559.192 255.666 558.976 257.058 558.976H262.146V571.648C262.146 572.672 261.906 573.544 261.426 574.264C260.946 575 260.266 575.552 259.386 575.92C258.506 576.304 257.458 576.496 256.242 576.496ZM264.714 571V569.008C264.922 569.008 265.05 569.096 265.098 569.272C265.162 569.448 265.194 569.688 265.194 569.992C265.194 570.296 265.162 570.544 265.098 570.736C265.05 570.912 264.922 571 264.714 571ZM264.711 571V569.008H277.647L276.231 570.064V565.096C276.231 564.04 276.111 563.216 275.871 562.624C275.647 562.032 275.247 561.608 274.671 561.352C274.095 561.096 273.311 560.968 272.319 560.968C271.647 560.968 270.983 561.016 270.327 561.112C269.671 561.208 269.159 561.336 268.791 561.496L270.159 560.152C270.063 560.52 269.967 560.992 269.871 561.568C269.775 562.144 269.695 562.768 269.631 563.44C269.567 564.096 269.535 564.752 269.535 565.408C269.535 566.064 269.567 566.712 269.631 567.352C269.695 567.992 269.767 568.552 269.847 569.032C269.927 569.512 269.991 569.84 270.039 570.016L267.903 570.616C267.839 570.408 267.759 570.048 267.663 569.536C267.583 569.024 267.503 568.408 267.423 567.688C267.359 566.968 267.327 566.208 267.327 565.408C267.327 564.624 267.359 563.864 267.423 563.128C267.503 562.376 267.591 561.696 267.687 561.088C267.799 560.48 267.903 559.992 267.999 559.624C268.367 559.48 268.935 559.336 269.703 559.192C270.487 559.048 271.359 558.976 272.319 558.976C273.679 558.976 274.815 559.176 275.727 559.576C276.655 559.976 277.343 560.624 277.791 561.52C278.255 562.4 278.487 563.592 278.487 565.096V571H264.711ZM264.711 571C264.503 571 264.375 570.912 264.327 570.736C264.263 570.544 264.231 570.296 264.231 569.992C264.231 569.688 264.263 569.448 264.327 569.272C264.375 569.096 264.503 569.008 264.711 569.008V571ZM295.676 571V558.976H297.908V569.92L296.78 569.008H300.62V571H295.676ZM290.54 563.368V561.352H295.676V563.368H290.54ZM285.908 576.496C285.7 576.496 285.484 576.48 285.26 576.448C285.02 576.432 284.78 576.416 284.54 576.4L284.732 574.408C284.972 574.424 285.196 574.44 285.404 574.456C285.596 574.472 285.756 574.48 285.884 574.48C286.604 574.48 287.18 574.208 287.612 573.664C288.06 573.12 288.284 572.36 288.284 571.384V558.976H290.54V571.384C290.54 572.392 290.34 573.28 289.94 574.048C289.54 574.816 288.996 575.416 288.308 575.848C287.62 576.28 286.82 576.496 285.908 576.496ZM300.62 571V569.008C300.828 569.008 300.956 569.096 301.004 569.272C301.068 569.448 301.1 569.688 301.1 569.992C301.1 570.296 301.068 570.544 301.004 570.736C300.956 570.912 300.828 571 300.62 571ZM293.66 575.512V573.184H295.916V575.512H293.66ZM296.948 575.512V573.184H299.204V575.512H296.948ZM305.633 570.832C304.785 570.096 304.137 569.264 303.689 568.336C303.241 567.408 303.017 566.424 303.017 565.384C303.017 564.456 303.185 563.6 303.521 562.816C303.857 562.032 304.305 561.352 304.865 560.776C305.441 560.2 306.121 559.76 306.905 559.456C307.689 559.136 308.521 558.976 309.401 558.976C309.865 558.976 310.361 559.024 310.889 559.12C311.433 559.216 311.953 559.352 312.449 559.528L311.705 561.424C311.321 561.28 310.937 561.176 310.553 561.112C310.169 561.032 309.801 560.992 309.449 560.992C308.633 560.992 307.905 561.184 307.265 561.568C306.641 561.936 306.153 562.448 305.801 563.104C305.449 563.76 305.273 564.512 305.273 565.36C305.273 566.976 305.897 568.312 307.145 569.368L305.633 570.832ZM300.617 571V569.008H312.713V571H300.617ZM300.617 571C300.409 571 300.281 570.912 300.233 570.736C300.169 570.544 300.137 570.296 300.137 569.992C300.137 569.688 300.169 569.448 300.233 569.272C300.281 569.096 300.409 569.008 300.617 569.008V571ZM307.289 556.816V554.488H309.545V556.816H307.289ZM326.457 571C325.065 571 323.969 570.792 323.169 570.376C322.369 569.944 321.793 569.288 321.441 568.408C321.105 567.512 320.937 566.384 320.937 565.024C320.937 563.648 321.105 562.512 321.441 561.616C321.793 560.72 322.369 560.056 323.169 559.624C323.969 559.192 325.065 558.976 326.457 558.976H331.545V569.896H329.313V560.2L330.225 560.992H326.457C325.609 560.992 324.945 561.096 324.465 561.304C323.985 561.496 323.649 561.888 323.457 562.48C323.265 563.056 323.169 563.904 323.169 565.024C323.169 566.128 323.265 566.968 323.457 567.544C323.649 568.104 323.977 568.488 324.441 568.696C324.921 568.904 325.593 569.008 326.457 569.008H334.113V571H326.457ZM334.113 571V569.008C334.321 569.008 334.449 569.096 334.497 569.272C334.561 569.448 334.593 569.688 334.593 569.992C334.593 570.296 334.561 570.544 334.497 570.736C334.449 570.912 334.321 571 334.113 571ZM323.961 557.032V554.704H326.217V557.032H323.961ZM327.249 557.032V554.704H329.505V557.032H327.249ZM346.133 571V569.008H348.725V571H346.133ZM334.109 571V569.008H344.621L343.901 569.608V564.064C343.901 563.056 343.581 562.296 342.941 561.784C342.317 561.272 341.341 561.016 340.013 561.016C339.613 561.016 339.037 561.048 338.285 561.112C337.549 561.176 336.765 561.272 335.933 561.4L335.693 559.576C336.349 559.416 337.061 559.28 337.829 559.168C338.597 559.04 339.341 558.976 340.061 558.976C341.309 558.976 342.381 559.176 343.277 559.576C344.189 559.976 344.893 560.56 345.389 561.328C345.885 562.08 346.133 562.992 346.133 564.064V571H334.109ZM334.109 571C333.901 571 333.773 570.912 333.725 570.736C333.661 570.544 333.629 570.296 333.629 569.992C333.629 569.688 333.661 569.448 333.725 569.272C333.773 569.096 333.901 569.008 334.109 569.008V571ZM348.725 571V569.008C348.917 569.008 349.045 569.096 349.109 569.272C349.173 569.448 349.205 569.688 349.205 569.992C349.205 570.296 349.173 570.544 349.109 570.736C349.045 570.912 348.917 571 348.725 571ZM361.67 571V569.008H364.238V571H361.67ZM348.734 571V569.008H360.59L359.438 570.016V560.2L360.374 560.992H356.582C355.718 560.992 355.046 561.096 354.566 561.304C354.086 561.512 353.75 561.904 353.558 562.48C353.382 563.056 353.294 563.896 353.294 565C353.294 566.104 353.382 566.944 353.558 567.52C353.75 568.096 354.086 568.488 354.566 568.696C355.046 568.904 355.718 569.008 356.582 569.008V570.568C355.19 570.568 354.094 570.392 353.294 570.04C352.494 569.688 351.918 569.104 351.566 568.288C351.23 567.472 351.062 566.376 351.062 565C351.062 563.64 351.23 562.52 351.566 561.64C351.918 560.744 352.494 560.08 353.294 559.648C354.094 559.2 355.19 558.976 356.582 558.976H361.67V571H348.734ZM348.734 571C348.526 571 348.398 570.912 348.35 570.736C348.286 570.544 348.254 570.296 348.254 569.992C348.254 569.688 348.286 569.448 348.35 569.272C348.398 569.096 348.526 569.008 348.734 569.008V571ZM364.238 571V569.008C364.446 569.008 364.574 569.096 364.622 569.272C364.686 569.448 364.718 569.688 364.718 569.992C364.718 570.296 364.686 570.544 364.622 570.736C364.574 570.912 364.446 571 364.238 571ZM355.814 556.816V554.488H358.07V556.816H355.814ZM382.346 571V569.008H384.914V571H382.346ZM364.25 571V569.008H382.106L380.09 570.784V565.288C380.09 564.312 379.954 563.512 379.682 562.888C379.426 562.248 379.034 561.776 378.506 561.472C377.978 561.152 377.322 560.992 376.538 560.992C375.85 560.992 375.202 561.112 374.594 561.352C373.986 561.592 373.426 561.912 372.914 562.312C372.402 562.696 371.922 563.12 371.474 563.584C371.026 564.048 370.618 564.512 370.25 564.976C369.898 565.44 369.578 565.856 369.29 566.224L368.642 564.352C369.106 563.792 369.554 563.248 369.986 562.72C370.418 562.176 370.858 561.68 371.306 561.232C371.77 560.784 372.258 560.392 372.77 560.056C373.298 559.72 373.874 559.456 374.498 559.264C375.138 559.072 375.858 558.976 376.658 558.976C377.778 558.976 378.706 559.168 379.442 559.552C380.178 559.936 380.754 560.44 381.17 561.064C381.602 561.688 381.906 562.376 382.082 563.128C382.258 563.864 382.346 564.584 382.346 565.288V571H364.25ZM367.562 569.008V558.976H369.794V569.008H367.562ZM364.25 571C364.042 571 363.914 570.912 363.866 570.736C363.802 570.544 363.77 570.296 363.77 569.992C363.77 569.688 363.802 569.448 363.866 569.272C363.914 569.096 364.042 569.008 364.25 569.008V571ZM384.914 571V569.008C385.122 569.008 385.25 569.096 385.298 569.272C385.362 569.448 385.394 569.688 385.394 569.992C385.394 570.296 385.362 570.544 385.298 570.736C385.25 570.912 385.122 571 384.914 571ZM387.778 571V553.864H390.01V571H387.778ZM384.922 571V569.008H387.778V571H384.922ZM384.922 571C384.714 571 384.586 570.912 384.538 570.736C384.474 570.544 384.442 570.296 384.442 569.992C384.442 569.688 384.474 569.448 384.538 569.272C384.586 569.096 384.714 569.008 384.922 569.008V571ZM394.069 571V553.864H396.301V571H394.069Z" fill="black"/>
</svg>
