<svg width="714" height="81" viewBox="0 0 714 81" fill="none" xmlns="http://www.w3.org/2000/svg">
<rect x="17" y="9" width="41" height="41" rx="20.5" fill="#BC6C9A"/>
<mask id="mask0_55_1627" style="mask-type:alpha" maskUnits="userSpaceOnUse" x="26" y="18" width="24" height="24">
<rect x="26" y="18" width="24" height="24" fill="#D9D9D9"/>
</mask>
<g mask="url(#mask0_55_1627)">
<path d="M33.3 39C32.6667 39 32.125 38.7708 31.675 38.3125C31.225 37.8542 31 37.3083 31 36.675V27.4L29.175 23H27V21H30.525L32.175 25H46.95C47.3333 25 47.625 25.1583 47.825 25.475C48.025 25.7917 48.0333 26.1167 47.85 26.45L45 32.025C45.85 32.1583 46.5625 32.55 47.1375 33.2C47.7125 33.85 48 34.6167 48 35.5C48 36.4667 47.6625 37.2917 46.9875 37.975C46.3125 38.6583 45.4917 39 44.525 39C43.5417 39 42.7125 38.6583 42.0375 37.975C41.3625 37.2917 41.025 36.4667 41.025 35.5C41.025 35.1667 41.0667 34.8583 41.15 34.575C41.2333 34.2917 41.35 34.0167 41.5 33.75L38.225 33.45L35.225 37.95C35.0083 38.2833 34.7292 38.5417 34.3875 38.725C34.0458 38.9083 33.6833 39 33.3 39ZM42.85 31.875L45.325 27L33 27.025L34.25 30C34.3833 30.3333 34.5958 30.6125 34.8875 30.8375C35.1792 31.0625 35.5167 31.1917 35.9 31.225L42.85 31.875ZM33.325 36.975C33.3583 36.975 33.4333 36.9333 33.55 36.85L35.975 33.25C35.1583 33.1667 34.5167 32.9708 34.05 32.6625C33.5833 32.3542 33.2333 32.0333 33 31.7V36.7C33 36.7833 33.0333 36.85 33.1 36.9C33.1667 36.95 33.2417 36.975 33.325 36.975ZM44.5 37C44.9333 37 45.2917 36.8542 45.575 36.5625C45.8583 36.2708 46 35.9167 46 35.5C46 35.0667 45.8583 34.7083 45.575 34.425C45.2917 34.1417 44.9333 34 44.5 34C44.0833 34 43.7292 34.1417 43.4375 34.425C43.1458 34.7083 43 35.0667 43 35.5C43 35.9167 43.1458 36.2708 43.4375 36.5625C43.7292 36.8542 44.0833 37 44.5 37Z" fill="white"/>
</g>
<path d="M67 29.5C67 45.7924 53.7924 59 37.5 59C21.2076 59 8 45.7924 8 29.5C8 13.2076 21.2076 0 37.5 0C53.7924 0 67 13.2076 67 29.5ZM11.3874 29.5C11.3874 43.9216 23.0784 55.6126 37.5 55.6126C51.9216 55.6126 63.6126 43.9216 63.6126 29.5C63.6126 15.0784 51.9216 3.38739 37.5 3.38739C23.0784 3.38739 11.3874 15.0784 11.3874 29.5Z" fill="#BC6C9A"/>
<path d="M9.14 73.704C9.14 74.368 9.056 74.972 8.888 75.516C8.72 76.052 8.468 76.516 8.132 76.908C7.804 77.3 7.392 77.6 6.896 77.808C6.408 78.016 5.84 78.12 5.192 78.12C4.52 78.12 3.936 78.016 3.44 77.808C2.944 77.592 2.532 77.292 2.204 76.908C1.876 76.516 1.632 76.048 1.472 75.504C1.312 74.96 1.232 74.356 1.232 73.692C1.232 72.812 1.376 72.044 1.664 71.388C1.952 70.732 2.388 70.22 2.972 69.852C3.564 69.484 4.308 69.3 5.204 69.3C6.06 69.3 6.78 69.484 7.364 69.852C7.948 70.212 8.388 70.724 8.684 71.388C8.988 72.044 9.14 72.816 9.14 73.704ZM2.372 73.704C2.372 74.424 2.472 75.044 2.672 75.564C2.872 76.084 3.18 76.484 3.596 76.764C4.02 77.044 4.552 77.184 5.192 77.184C5.84 77.184 6.368 77.044 6.776 76.764C7.192 76.484 7.5 76.084 7.7 75.564C7.9 75.044 8 74.424 8 73.704C8 72.624 7.776 71.78 7.328 71.172C6.88 70.556 6.172 70.248 5.204 70.248C4.556 70.248 4.02 70.388 3.596 70.668C3.18 70.94 2.872 71.336 2.672 71.856C2.472 72.368 2.372 72.984 2.372 73.704ZM13.895 71.448C14.015 71.448 14.143 71.456 14.279 71.472C14.423 71.48 14.547 71.496 14.651 71.52L14.519 72.492C14.415 72.468 14.299 72.448 14.171 72.432C14.051 72.416 13.935 72.408 13.823 72.408C13.575 72.408 13.339 72.46 13.115 72.564C12.891 72.668 12.691 72.816 12.515 73.008C12.339 73.192 12.199 73.416 12.095 73.68C11.999 73.944 11.951 74.24 11.951 74.568V78H10.895V71.568H11.759L11.879 72.744H11.927C12.063 72.504 12.227 72.288 12.419 72.096C12.611 71.896 12.831 71.74 13.079 71.628C13.327 71.508 13.599 71.448 13.895 71.448ZM17.8977 78.12C17.0977 78.12 16.4577 77.844 15.9777 77.292C15.4977 76.732 15.2577 75.9 15.2577 74.796C15.2577 73.692 15.4977 72.86 15.9777 72.3C16.4657 71.732 17.1097 71.448 17.9097 71.448C18.2457 71.448 18.5377 71.492 18.7857 71.58C19.0337 71.66 19.2497 71.772 19.4337 71.916C19.6177 72.06 19.7737 72.22 19.9017 72.396H19.9737C19.9657 72.292 19.9497 72.14 19.9257 71.94C19.9097 71.732 19.9017 71.568 19.9017 71.448V68.88H20.9577V78H20.1057L19.9497 77.136H19.9017C19.7737 77.32 19.6177 77.488 19.4337 77.64C19.2497 77.784 19.0297 77.9 18.7737 77.988C18.5257 78.076 18.2337 78.12 17.8977 78.12ZM18.0657 77.244C18.7457 77.244 19.2217 77.06 19.4937 76.692C19.7737 76.316 19.9137 75.752 19.9137 75V74.808C19.9137 74.008 19.7817 73.396 19.5177 72.972C19.2537 72.54 18.7657 72.324 18.0537 72.324C17.4857 72.324 17.0577 72.552 16.7697 73.008C16.4897 73.456 16.3497 74.06 16.3497 74.82C16.3497 75.588 16.4897 76.184 16.7697 76.608C17.0577 77.032 17.4897 77.244 18.0657 77.244ZM25.4845 71.448C26.0365 71.448 26.5085 71.568 26.9005 71.808C27.3005 72.048 27.6045 72.388 27.8125 72.828C28.0285 73.26 28.1365 73.768 28.1365 74.352V74.988H23.7325C23.7485 75.716 23.9325 76.272 24.2845 76.656C24.6445 77.032 25.1445 77.22 25.7845 77.22C26.1925 77.22 26.5525 77.184 26.8645 77.112C27.1845 77.032 27.5125 76.92 27.8485 76.776V77.7C27.5205 77.844 27.1965 77.948 26.8765 78.012C26.5565 78.084 26.1765 78.12 25.7365 78.12C25.1285 78.12 24.5885 77.996 24.1165 77.748C23.6525 77.5 23.2885 77.132 23.0245 76.644C22.7685 76.148 22.6405 75.544 22.6405 74.832C22.6405 74.128 22.7565 73.524 22.9885 73.02C23.2285 72.516 23.5605 72.128 23.9845 71.856C24.4165 71.584 24.9165 71.448 25.4845 71.448ZM25.4725 72.312C24.9685 72.312 24.5685 72.476 24.2725 72.804C23.9845 73.124 23.8125 73.572 23.7565 74.148H27.0325C27.0325 73.78 26.9765 73.46 26.8645 73.188C26.7525 72.916 26.5805 72.704 26.3485 72.552C26.1245 72.392 25.8325 72.312 25.4725 72.312ZM32.7739 71.448C32.8939 71.448 33.0219 71.456 33.1579 71.472C33.3019 71.48 33.4259 71.496 33.5299 71.52L33.3979 72.492C33.2939 72.468 33.1779 72.448 33.0499 72.432C32.9299 72.416 32.8139 72.408 32.7019 72.408C32.4539 72.408 32.2179 72.46 31.9939 72.564C31.7699 72.668 31.5699 72.816 31.3939 73.008C31.2179 73.192 31.0779 73.416 30.9739 73.68C30.8779 73.944 30.8299 74.24 30.8299 74.568V78H29.7739V71.568H30.6379L30.7579 72.744H30.8059C30.9419 72.504 31.1059 72.288 31.2979 72.096C31.4899 71.896 31.7099 71.74 31.9579 71.628C32.2059 71.508 32.4779 71.448 32.7739 71.448ZM40.9081 71.448C41.7001 71.448 42.3361 71.724 42.8161 72.276C43.3041 72.828 43.5481 73.66 43.5481 74.772C43.5481 75.5 43.4361 76.116 43.2121 76.62C42.9961 77.116 42.6881 77.492 42.2881 77.748C41.8961 77.996 41.4321 78.12 40.8961 78.12C40.5681 78.12 40.2761 78.076 40.0201 77.988C39.7641 77.9 39.5441 77.788 39.3601 77.652C39.1841 77.508 39.0321 77.352 38.9041 77.184H38.8321C38.8481 77.32 38.8641 77.492 38.8801 77.7C38.8961 77.908 38.9041 78.088 38.9041 78.24V80.88H37.8481V71.568H38.7121L38.8561 72.444H38.9041C39.0321 72.26 39.1841 72.092 39.3601 71.94C39.5441 71.788 39.7601 71.668 40.0081 71.58C40.2641 71.492 40.5641 71.448 40.9081 71.448ZM40.7161 72.336C40.2841 72.336 39.9361 72.42 39.6721 72.588C39.4081 72.748 39.2161 72.992 39.0961 73.32C38.9761 73.648 38.9121 74.064 38.9041 74.568V74.772C38.9041 75.3 38.9601 75.748 39.0721 76.116C39.1841 76.484 39.3721 76.764 39.6361 76.956C39.9081 77.148 40.2761 77.244 40.7401 77.244C41.1321 77.244 41.4521 77.136 41.7001 76.92C41.9561 76.704 42.1441 76.412 42.2641 76.044C42.3921 75.668 42.4561 75.24 42.4561 74.76C42.4561 74.024 42.3121 73.436 42.0241 72.996C41.7441 72.556 41.3081 72.336 40.7161 72.336ZM46.2869 78H45.2309V68.88H46.2869V78ZM50.7607 71.46C51.5447 71.46 52.1247 71.632 52.5007 71.976C52.8767 72.32 53.0647 72.868 53.0647 73.62V78H52.2967L52.0927 77.088H52.0447C51.8607 77.32 51.6687 77.516 51.4687 77.676C51.2767 77.828 51.0527 77.94 50.7967 78.012C50.5487 78.084 50.2447 78.12 49.8847 78.12C49.5007 78.12 49.1527 78.052 48.8407 77.916C48.5367 77.78 48.2967 77.572 48.1207 77.292C47.9447 77.004 47.8567 76.644 47.8567 76.212C47.8567 75.572 48.1087 75.08 48.6127 74.736C49.1167 74.384 49.8927 74.192 50.9407 74.16L52.0327 74.124V73.74C52.0327 73.204 51.9167 72.832 51.6847 72.624C51.4527 72.416 51.1247 72.312 50.7007 72.312C50.3647 72.312 50.0447 72.364 49.7407 72.468C49.4367 72.564 49.1527 72.676 48.8887 72.804L48.5647 72.012C48.8447 71.86 49.1767 71.732 49.5607 71.628C49.9447 71.516 50.3447 71.46 50.7607 71.46ZM51.0727 74.892C50.2727 74.924 49.7167 75.052 49.4047 75.276C49.1007 75.5 48.9487 75.816 48.9487 76.224C48.9487 76.584 49.0567 76.848 49.2727 77.016C49.4967 77.184 49.7807 77.268 50.1247 77.268C50.6687 77.268 51.1207 77.12 51.4807 76.824C51.8407 76.52 52.0207 76.056 52.0207 75.432V74.856L51.0727 74.892ZM57.6313 78.12C57.0633 78.12 56.5553 78.004 56.1073 77.772C55.6673 77.54 55.3193 77.18 55.0633 76.692C54.8153 76.204 54.6913 75.58 54.6913 74.82C54.6913 74.028 54.8233 73.384 55.0873 72.888C55.3513 72.392 55.7073 72.028 56.1553 71.796C56.6113 71.564 57.1273 71.448 57.7033 71.448C58.0313 71.448 58.3473 71.484 58.6513 71.556C58.9553 71.62 59.2033 71.7 59.3953 71.796L59.0713 72.672C58.8793 72.6 58.6553 72.532 58.3993 72.468C58.1433 72.404 57.9033 72.372 57.6793 72.372C57.2473 72.372 56.8913 72.464 56.6113 72.648C56.3313 72.832 56.1233 73.104 55.9873 73.464C55.8513 73.824 55.7833 74.272 55.7833 74.808C55.7833 75.32 55.8513 75.756 55.9873 76.116C56.1233 76.476 56.3273 76.748 56.5993 76.932C56.8713 77.116 57.2113 77.208 57.6193 77.208C57.9713 77.208 58.2793 77.172 58.5433 77.1C58.8153 77.028 59.0633 76.94 59.2873 76.836V77.772C59.0713 77.884 58.8313 77.968 58.5673 78.024C58.3113 78.088 57.9993 78.12 57.6313 78.12ZM63.3009 71.448C63.8529 71.448 64.3249 71.568 64.7169 71.808C65.1169 72.048 65.4209 72.388 65.6289 72.828C65.8449 73.26 65.9529 73.768 65.9529 74.352V74.988H61.5489C61.5649 75.716 61.7489 76.272 62.1009 76.656C62.4609 77.032 62.9609 77.22 63.6009 77.22C64.0089 77.22 64.3689 77.184 64.6809 77.112C65.0009 77.032 65.3289 76.92 65.6649 76.776V77.7C65.3369 77.844 65.0129 77.948 64.6929 78.012C64.3729 78.084 63.9929 78.12 63.5529 78.12C62.9449 78.12 62.4049 77.996 61.9329 77.748C61.4689 77.5 61.1049 77.132 60.8409 76.644C60.5849 76.148 60.4569 75.544 60.4569 74.832C60.4569 74.128 60.5729 73.524 60.8049 73.02C61.0449 72.516 61.3769 72.128 61.8009 71.856C62.2329 71.584 62.7329 71.448 63.3009 71.448ZM63.2889 72.312C62.7849 72.312 62.3849 72.476 62.0889 72.804C61.8009 73.124 61.6289 73.572 61.5729 74.148H64.8489C64.8489 73.78 64.7929 73.46 64.6809 73.188C64.5689 72.916 64.3969 72.704 64.1649 72.552C63.9409 72.392 63.6489 72.312 63.2889 72.312ZM69.8703 78.12C69.0703 78.12 68.4303 77.844 67.9503 77.292C67.4703 76.732 67.2303 75.9 67.2303 74.796C67.2303 73.692 67.4703 72.86 67.9503 72.3C68.4383 71.732 69.0823 71.448 69.8823 71.448C70.2183 71.448 70.5103 71.492 70.7583 71.58C71.0063 71.66 71.2223 71.772 71.4063 71.916C71.5903 72.06 71.7463 72.22 71.8743 72.396H71.9463C71.9383 72.292 71.9223 72.14 71.8983 71.94C71.8823 71.732 71.8743 71.568 71.8743 71.448V68.88H72.9303V78H72.0783L71.9223 77.136H71.8743C71.7463 77.32 71.5903 77.488 71.4063 77.64C71.2223 77.784 71.0023 77.9 70.7463 77.988C70.4983 78.076 70.2063 78.12 69.8703 78.12ZM70.0383 77.244C70.7183 77.244 71.1943 77.06 71.4663 76.692C71.7463 76.316 71.8863 75.752 71.8863 75V74.808C71.8863 74.008 71.7543 73.396 71.4903 72.972C71.2263 72.54 70.7383 72.324 70.0263 72.324C69.4583 72.324 69.0303 72.552 68.7423 73.008C68.4623 73.456 68.3223 74.06 68.3223 74.82C68.3223 75.588 68.4623 76.184 68.7423 76.608C69.0303 77.032 69.4623 77.244 70.0383 77.244Z" fill="#BC6C9A"/>
<rect x="344.5" y="9" width="41" height="41" rx="20.5" fill="#BC6C9A"/>
<mask id="mask1_55_1627" style="mask-type:alpha" maskUnits="userSpaceOnUse" x="353" y="18" width="25" height="24">
<rect x="353.5" y="18" width="24" height="24" fill="#D9D9D9"/>
</mask>
<g mask="url(#mask1_55_1627)">
<path d="M359.5 37C358.667 37 357.958 36.7083 357.375 36.125C356.792 35.5417 356.5 34.8333 356.5 34H354.5V25C354.5 24.45 354.696 23.9792 355.088 23.5875C355.479 23.1958 355.95 23 356.5 23H370.5L376.5 29V34H374.5C374.5 34.8333 374.208 35.5417 373.625 36.125C373.042 36.7083 372.333 37 371.5 37C370.667 37 369.958 36.7083 369.375 36.125C368.792 35.5417 368.5 34.8333 368.5 34H362.5C362.5 34.8333 362.208 35.5417 361.625 36.125C361.042 36.7083 360.333 37 359.5 37ZM368.5 28H372.5L369.5 25H368.5V28ZM362.5 28H366.5V25H362.5V28ZM356.5 28H360.5V25H356.5V28ZM359.5 35.25C359.85 35.25 360.146 35.1292 360.388 34.8875C360.629 34.6458 360.75 34.35 360.75 34C360.75 33.65 360.629 33.3542 360.388 33.1125C360.146 32.8708 359.85 32.75 359.5 32.75C359.15 32.75 358.854 32.8708 358.613 33.1125C358.371 33.3542 358.25 33.65 358.25 34C358.25 34.35 358.371 34.6458 358.613 34.8875C358.854 35.1292 359.15 35.25 359.5 35.25ZM371.5 35.25C371.85 35.25 372.146 35.1292 372.388 34.8875C372.629 34.6458 372.75 34.35 372.75 34C372.75 33.65 372.629 33.3542 372.388 33.1125C372.146 32.8708 371.85 32.75 371.5 32.75C371.15 32.75 370.854 32.8708 370.613 33.1125C370.371 33.3542 370.25 33.65 370.25 34C370.25 34.35 370.371 34.6458 370.613 34.8875C370.854 35.1292 371.15 35.25 371.5 35.25ZM356.5 32H357.3C357.583 31.7 357.908 31.4583 358.275 31.275C358.642 31.0917 359.05 31 359.5 31C359.95 31 360.358 31.0917 360.725 31.275C361.092 31.4583 361.417 31.7 361.7 32H369.3C369.583 31.7 369.908 31.4583 370.275 31.275C370.642 31.0917 371.05 31 371.5 31C371.95 31 372.358 31.0917 372.725 31.275C373.092 31.4583 373.417 31.7 373.7 32H374.5V30H356.5V32Z" fill="white"/>
</g>
<path d="M394.5 29.5C394.5 45.7924 381.292 59 365 59C348.708 59 335.5 45.7924 335.5 29.5C335.5 13.2076 348.708 0 365 0C381.292 0 394.5 13.2076 394.5 29.5ZM338.887 29.5C338.887 43.9216 350.578 55.6126 365 55.6126C379.422 55.6126 391.113 43.9216 391.113 29.5C391.113 15.0784 379.422 3.38739 365 3.38739C350.578 3.38739 338.887 15.0784 338.887 29.5Z" fill="#BC6C9A"/>
<path d="M343.076 78H339.98V77.376L340.988 77.148V70.296L339.98 70.056V69.432H343.076V70.056L342.068 70.296V77.148L343.076 77.376V78ZM347.682 71.448C348.45 71.448 349.03 71.636 349.422 72.012C349.814 72.38 350.01 72.98 350.01 73.812V78H348.966V73.884C348.966 73.364 348.85 72.976 348.618 72.72C348.386 72.464 348.022 72.336 347.526 72.336C346.814 72.336 346.322 72.536 346.05 72.936C345.778 73.336 345.642 73.912 345.642 74.664V78H344.586V71.568H345.438L345.594 72.444H345.654C345.798 72.22 345.974 72.036 346.182 71.892C346.398 71.74 346.634 71.628 346.89 71.556C347.146 71.484 347.41 71.448 347.682 71.448ZM357.27 77.256C357.43 77.256 357.594 77.244 357.762 77.22C357.93 77.188 358.066 77.156 358.17 77.124V77.928C358.058 77.984 357.898 78.028 357.69 78.06C357.482 78.1 357.282 78.12 357.09 78.12C356.754 78.12 356.442 78.064 356.154 77.952C355.874 77.832 355.646 77.628 355.47 77.34C355.294 77.052 355.206 76.648 355.206 76.128V72.384H354.294V71.88L355.218 71.46L355.638 70.092H356.262V71.568H358.122V72.384H356.262V76.104C356.262 76.496 356.354 76.788 356.538 76.98C356.73 77.164 356.974 77.256 357.27 77.256ZM362.458 71.448C362.578 71.448 362.706 71.456 362.842 71.472C362.986 71.48 363.11 71.496 363.214 71.52L363.082 72.492C362.978 72.468 362.862 72.448 362.734 72.432C362.614 72.416 362.498 72.408 362.386 72.408C362.138 72.408 361.902 72.46 361.678 72.564C361.454 72.668 361.254 72.816 361.078 73.008C360.902 73.192 360.762 73.416 360.658 73.68C360.562 73.944 360.514 74.24 360.514 74.568V78H359.458V71.568H360.322L360.442 72.744H360.49C360.626 72.504 360.79 72.288 360.982 72.096C361.174 71.896 361.394 71.74 361.642 71.628C361.89 71.508 362.162 71.448 362.458 71.448ZM366.616 71.46C367.4 71.46 367.98 71.632 368.356 71.976C368.732 72.32 368.92 72.868 368.92 73.62V78H368.152L367.948 77.088H367.9C367.716 77.32 367.524 77.516 367.324 77.676C367.132 77.828 366.908 77.94 366.652 78.012C366.404 78.084 366.1 78.12 365.74 78.12C365.356 78.12 365.008 78.052 364.696 77.916C364.392 77.78 364.152 77.572 363.976 77.292C363.8 77.004 363.712 76.644 363.712 76.212C363.712 75.572 363.964 75.08 364.468 74.736C364.972 74.384 365.748 74.192 366.796 74.16L367.888 74.124V73.74C367.888 73.204 367.772 72.832 367.54 72.624C367.308 72.416 366.98 72.312 366.556 72.312C366.22 72.312 365.9 72.364 365.596 72.468C365.292 72.564 365.008 72.676 364.744 72.804L364.42 72.012C364.7 71.86 365.032 71.732 365.416 71.628C365.8 71.516 366.2 71.46 366.616 71.46ZM366.928 74.892C366.128 74.924 365.572 75.052 365.26 75.276C364.956 75.5 364.804 75.816 364.804 76.224C364.804 76.584 364.912 76.848 365.128 77.016C365.352 77.184 365.636 77.268 365.98 77.268C366.524 77.268 366.976 77.12 367.336 76.824C367.696 76.52 367.876 76.056 367.876 75.432V74.856L366.928 74.892ZM374.003 71.448C374.771 71.448 375.351 71.636 375.743 72.012C376.135 72.38 376.331 72.98 376.331 73.812V78H375.287V73.884C375.287 73.364 375.171 72.976 374.939 72.72C374.707 72.464 374.343 72.336 373.847 72.336C373.135 72.336 372.643 72.536 372.371 72.936C372.099 73.336 371.963 73.912 371.963 74.664V78H370.907V71.568H371.759L371.915 72.444H371.975C372.119 72.22 372.295 72.036 372.503 71.892C372.719 71.74 372.955 71.628 373.211 71.556C373.467 71.484 373.731 71.448 374.003 71.448ZM382.513 76.224C382.513 76.64 382.409 76.988 382.201 77.268C381.993 77.548 381.697 77.76 381.313 77.904C380.929 78.048 380.473 78.12 379.945 78.12C379.497 78.12 379.109 78.084 378.781 78.012C378.461 77.94 378.177 77.84 377.929 77.712V76.752C378.185 76.88 378.493 77 378.853 77.112C379.221 77.216 379.593 77.268 379.969 77.268C380.505 77.268 380.893 77.184 381.133 77.016C381.373 76.84 381.493 76.608 381.493 76.32C381.493 76.16 381.449 76.016 381.361 75.888C381.273 75.76 381.113 75.632 380.881 75.504C380.657 75.376 380.333 75.232 379.909 75.072C379.493 74.912 379.137 74.752 378.841 74.592C378.545 74.432 378.317 74.24 378.157 74.016C377.997 73.792 377.917 73.504 377.917 73.152C377.917 72.608 378.137 72.188 378.577 71.892C379.025 71.596 379.609 71.448 380.329 71.448C380.721 71.448 381.085 71.488 381.421 71.568C381.765 71.64 382.085 71.744 382.381 71.88L382.021 72.72C381.845 72.64 381.657 72.572 381.457 72.516C381.265 72.452 381.069 72.404 380.869 72.372C380.669 72.332 380.465 72.312 380.257 72.312C379.825 72.312 379.493 72.384 379.261 72.528C379.037 72.664 378.925 72.852 378.925 73.092C378.925 73.268 378.977 73.42 379.081 73.548C379.185 73.668 379.357 73.788 379.597 73.908C379.845 74.02 380.173 74.156 380.581 74.316C380.989 74.468 381.337 74.624 381.625 74.784C381.913 74.944 382.133 75.14 382.285 75.372C382.437 75.596 382.513 75.88 382.513 76.224ZM385.123 71.568V78H384.067V71.568H385.123ZM384.607 69.156C384.767 69.156 384.907 69.212 385.027 69.324C385.155 69.428 385.219 69.596 385.219 69.828C385.219 70.052 385.155 70.22 385.027 70.332C384.907 70.444 384.767 70.5 384.607 70.5C384.431 70.5 384.283 70.444 384.163 70.332C384.043 70.22 383.983 70.052 383.983 69.828C383.983 69.596 384.043 69.428 384.163 69.324C384.283 69.212 384.431 69.156 384.607 69.156ZM389.309 77.256C389.469 77.256 389.633 77.244 389.801 77.22C389.969 77.188 390.105 77.156 390.209 77.124V77.928C390.097 77.984 389.937 78.028 389.729 78.06C389.521 78.1 389.321 78.12 389.129 78.12C388.793 78.12 388.481 78.064 388.193 77.952C387.913 77.832 387.685 77.628 387.509 77.34C387.333 77.052 387.245 76.648 387.245 76.128V72.384H386.333V71.88L387.257 71.46L387.677 70.092H388.301V71.568H390.161V72.384H388.301V76.104C388.301 76.496 388.393 76.788 388.577 76.98C388.769 77.164 389.013 77.256 389.309 77.256Z" fill="#BC6C9A"/>
<rect x="64.5" y="30" width="273" height="5" fill="#BC6C9A"/>
<rect x="392.5" y="30" width="265" height="5" rx="2.5" fill="#7D7D7D" fill-opacity="0.6"/>
<rect x="663.5" y="9" width="41" height="41" rx="20.5" fill="#7D7D7D" fill-opacity="0.6"/>
<mask id="mask2_55_1627" style="mask-type:alpha" maskUnits="userSpaceOnUse" x="672" y="18" width="25" height="24">
<rect x="672.5" y="18" width="24" height="24" fill="#D9D9D9"/>
</mask>
<g mask="url(#mask2_55_1627)">
<path d="M682.026 36L692.626 25.4L691.201 24L682.001 33.175L677.776 28.925L676.351 30.35L682.026 36ZM682.026 38.825L673.551 30.35L677.776 26.1L682.026 30.35L691.176 21.175L695.476 25.375L682.026 38.825Z" fill="white"/>
</g>
<path d="M713.5 29.5C713.5 45.7924 700.292 59 684 59C667.708 59 654.5 45.7924 654.5 29.5C654.5 13.2076 667.708 0 684 0C700.292 0 713.5 13.2076 713.5 29.5ZM657.887 29.5C657.887 43.9216 669.578 55.6126 684 55.6126C698.422 55.6126 710.113 43.9216 710.113 29.5C710.113 15.0784 698.422 3.38739 684 3.38739C669.578 3.38739 657.887 15.0784 657.887 29.5Z" fill="#7D7D7D" fill-opacity="0.6"/>
<path d="M660.8 78.12C660 78.12 659.36 77.844 658.88 77.292C658.4 76.732 658.16 75.9 658.16 74.796C658.16 73.692 658.4 72.86 658.88 72.3C659.368 71.732 660.012 71.448 660.812 71.448C661.148 71.448 661.44 71.492 661.688 71.58C661.936 71.66 662.152 71.772 662.336 71.916C662.52 72.06 662.676 72.22 662.804 72.396H662.876C662.868 72.292 662.852 72.14 662.828 71.94C662.812 71.732 662.804 71.568 662.804 71.448V68.88H663.86V78H663.008L662.852 77.136H662.804C662.676 77.32 662.52 77.488 662.336 77.64C662.152 77.784 661.932 77.9 661.676 77.988C661.428 78.076 661.136 78.12 660.8 78.12ZM660.968 77.244C661.648 77.244 662.124 77.06 662.396 76.692C662.676 76.316 662.816 75.752 662.816 75V74.808C662.816 74.008 662.684 73.396 662.42 72.972C662.156 72.54 661.668 72.324 660.956 72.324C660.388 72.324 659.96 72.552 659.672 73.008C659.392 73.456 659.252 74.06 659.252 74.82C659.252 75.588 659.392 76.184 659.672 76.608C659.96 77.032 660.392 77.244 660.968 77.244ZM668.387 71.448C668.939 71.448 669.411 71.568 669.803 71.808C670.203 72.048 670.507 72.388 670.715 72.828C670.931 73.26 671.039 73.768 671.039 74.352V74.988H666.635C666.651 75.716 666.835 76.272 667.187 76.656C667.547 77.032 668.047 77.22 668.687 77.22C669.095 77.22 669.455 77.184 669.767 77.112C670.087 77.032 670.415 76.92 670.751 76.776V77.7C670.423 77.844 670.099 77.948 669.779 78.012C669.459 78.084 669.079 78.12 668.639 78.12C668.031 78.12 667.491 77.996 667.019 77.748C666.555 77.5 666.191 77.132 665.927 76.644C665.671 76.148 665.543 75.544 665.543 74.832C665.543 74.128 665.659 73.524 665.891 73.02C666.131 72.516 666.463 72.128 666.887 71.856C667.319 71.584 667.819 71.448 668.387 71.448ZM668.375 72.312C667.871 72.312 667.471 72.476 667.175 72.804C666.887 73.124 666.715 73.572 666.659 74.148H669.935C669.935 73.78 669.879 73.46 669.767 73.188C669.655 72.916 669.483 72.704 669.251 72.552C669.027 72.392 668.735 72.312 668.375 72.312ZM673.732 78H672.676V68.88H673.732V78ZM676.826 71.568V78H675.77V71.568H676.826ZM676.31 69.156C676.47 69.156 676.61 69.212 676.73 69.324C676.858 69.428 676.922 69.596 676.922 69.828C676.922 70.052 676.858 70.22 676.73 70.332C676.61 70.444 676.47 70.5 676.31 70.5C676.134 70.5 675.986 70.444 675.866 70.332C675.746 70.22 675.686 70.052 675.686 69.828C675.686 69.596 675.746 69.428 675.866 69.324C675.986 69.212 676.134 69.156 676.31 69.156ZM680.28 78L677.844 71.568H678.972L680.34 75.36C680.404 75.536 680.472 75.732 680.544 75.948C680.616 76.164 680.68 76.372 680.736 76.572C680.792 76.764 680.832 76.928 680.856 77.064H680.904C680.936 76.928 680.98 76.76 681.036 76.56C681.1 76.36 681.168 76.152 681.24 75.936C681.32 75.72 681.388 75.528 681.444 75.36L682.812 71.568H683.94L681.492 78H680.28ZM687.442 71.448C687.994 71.448 688.466 71.568 688.858 71.808C689.258 72.048 689.562 72.388 689.77 72.828C689.986 73.26 690.094 73.768 690.094 74.352V74.988H685.69C685.706 75.716 685.89 76.272 686.242 76.656C686.602 77.032 687.102 77.22 687.742 77.22C688.15 77.22 688.51 77.184 688.822 77.112C689.142 77.032 689.47 76.92 689.806 76.776V77.7C689.478 77.844 689.154 77.948 688.834 78.012C688.514 78.084 688.134 78.12 687.694 78.12C687.086 78.12 686.546 77.996 686.074 77.748C685.61 77.5 685.246 77.132 684.982 76.644C684.726 76.148 684.598 75.544 684.598 74.832C684.598 74.128 684.714 73.524 684.946 73.02C685.186 72.516 685.518 72.128 685.942 71.856C686.374 71.584 686.874 71.448 687.442 71.448ZM687.43 72.312C686.926 72.312 686.526 72.476 686.23 72.804C685.942 73.124 685.77 73.572 685.714 74.148H688.99C688.99 73.78 688.934 73.46 688.822 73.188C688.71 72.916 688.538 72.704 688.306 72.552C688.082 72.392 687.79 72.312 687.43 72.312ZM694.731 71.448C694.851 71.448 694.979 71.456 695.115 71.472C695.259 71.48 695.383 71.496 695.487 71.52L695.355 72.492C695.251 72.468 695.135 72.448 695.007 72.432C694.887 72.416 694.771 72.408 694.659 72.408C694.411 72.408 694.175 72.46 693.951 72.564C693.727 72.668 693.527 72.816 693.351 73.008C693.175 73.192 693.035 73.416 692.931 73.68C692.835 73.944 692.787 74.24 692.787 74.568V78H691.731V71.568H692.595L692.715 72.744H692.763C692.899 72.504 693.063 72.288 693.255 72.096C693.447 71.896 693.667 71.74 693.915 71.628C694.163 71.508 694.435 71.448 694.731 71.448ZM698.938 71.448C699.49 71.448 699.962 71.568 700.354 71.808C700.754 72.048 701.058 72.388 701.266 72.828C701.482 73.26 701.59 73.768 701.59 74.352V74.988H697.186C697.202 75.716 697.386 76.272 697.738 76.656C698.098 77.032 698.598 77.22 699.238 77.22C699.646 77.22 700.006 77.184 700.318 77.112C700.638 77.032 700.966 76.92 701.302 76.776V77.7C700.974 77.844 700.65 77.948 700.33 78.012C700.01 78.084 699.63 78.12 699.19 78.12C698.582 78.12 698.042 77.996 697.57 77.748C697.106 77.5 696.742 77.132 696.478 76.644C696.222 76.148 696.094 75.544 696.094 74.832C696.094 74.128 696.21 73.524 696.442 73.02C696.682 72.516 697.014 72.128 697.438 71.856C697.87 71.584 698.37 71.448 698.938 71.448ZM698.926 72.312C698.422 72.312 698.022 72.476 697.726 72.804C697.438 73.124 697.266 73.572 697.21 74.148H700.486C700.486 73.78 700.43 73.46 700.318 73.188C700.206 72.916 700.034 72.704 699.802 72.552C699.578 72.392 699.286 72.312 698.926 72.312ZM705.507 78.12C704.707 78.12 704.067 77.844 703.587 77.292C703.107 76.732 702.867 75.9 702.867 74.796C702.867 73.692 703.107 72.86 703.587 72.3C704.075 71.732 704.719 71.448 705.519 71.448C705.855 71.448 706.147 71.492 706.395 71.58C706.643 71.66 706.859 71.772 707.043 71.916C707.227 72.06 707.383 72.22 707.511 72.396H707.583C707.575 72.292 707.559 72.14 707.535 71.94C707.519 71.732 707.511 71.568 707.511 71.448V68.88H708.567V78H707.715L707.559 77.136H707.511C707.383 77.32 707.227 77.488 707.043 77.64C706.859 77.784 706.639 77.9 706.383 77.988C706.135 78.076 705.843 78.12 705.507 78.12ZM705.675 77.244C706.355 77.244 706.831 77.06 707.103 76.692C707.383 76.316 707.523 75.752 707.523 75V74.808C707.523 74.008 707.391 73.396 707.127 72.972C706.863 72.54 706.375 72.324 705.663 72.324C705.095 72.324 704.667 72.552 704.379 73.008C704.099 73.456 703.959 74.06 703.959 74.82C703.959 75.588 704.099 76.184 704.379 76.608C704.667 77.032 705.099 77.244 705.675 77.244Z" fill="#7D7D7D" fill-opacity="0.6"/>
</svg>
