<svg width="344" height="149" viewBox="0 0 344 149" fill="none" xmlns="http://www.w3.org/2000/svg">
<path d="M75.4767 95.6187C74.3195 97.99 70.1743 97.3359 70.0568 94.0833C69.5505 80.2781 69.0669 67.1724 67.1864 52.7721C66.5385 47.8085 66.1241 44.8073 65.9433 43.7685C64.6459 36.2958 62.44 29.3364 57.2371 23.6308C56.2471 22.5497 56.3601 21.8819 57.1647 20.778C61.3822 15.0043 67.2497 12.3604 74.3421 12.792C80.538 13.1645 85.5135 16.0839 89.2684 21.5503C89.4302 21.785 89.5064 22.0687 89.4842 22.3534C89.4619 22.6382 89.3426 22.9064 89.1463 23.113C81.9499 30.6584 80.3542 40.0799 79.0885 50.3145C77.2141 65.4841 76.1759 79.4695 75.974 92.2708C75.9499 93.8758 75.7841 94.9918 75.4767 95.6187Z" fill="#F1BAD5"/>
<path d="M46.4286 57.3244C43.2689 49.2747 39.2277 40.8753 32.0945 35.7057C31.9449 35.5975 31.823 35.4546 31.7389 35.2887C31.6548 35.1228 31.6109 34.9388 31.6108 34.7518C31.6154 26.3387 39.4808 19.9562 47.5858 22.3775C56.839 25.144 60.9616 37.2003 61.6622 45.9904C61.825 48.0527 62.8195 50.0152 63.0138 51.9004C64.3745 65.1696 65.5678 78.4751 65.5091 91.3127C65.494 95.2679 63.8682 98.3963 60.6316 100.698C60.5111 100.783 60.4207 100.758 60.3604 100.625C59.9264 99.6894 59.5015 98.7355 59.2167 97.7179C55.1484 83.2267 51.6632 70.6344 46.4286 57.3244Z" fill="#F1BAD5"/>
<path d="M85.3491 39.7302C87.4239 30.0271 94.7424 18.6431 106.324 22.8951C110.844 24.5546 113.488 28.051 114.257 33.3841C114.456 34.7515 114.212 35.3284 113.104 36.1779C110.478 38.2039 108.358 40.4116 106.586 43.3916C101.96 51.1657 98.205 59.609 95.321 68.7216C91.6866 80.1965 88.9066 90.2858 85.5751 100.784C85.5209 100.953 85.4244 100.985 85.2858 100.879C81.1587 97.7812 80.3134 94.2788 80.3993 88.9548C80.6102 75.6356 81.6092 62.377 83.3963 49.179C83.8167 46.09 84.6756 42.8647 85.3491 39.7302Z" fill="#F1BAD5"/>
<path d="M106.92 50.9324C108.936 46.6683 111.385 43.2492 114.266 40.675C116.399 38.7671 119.631 38.2537 122.452 39.0578C127.434 40.4781 130.539 43.9245 131.769 49.3969C132.691 53.5126 131.258 55.307 128.112 58.0008C125.58 60.1692 123.647 62.0847 122.312 63.7473C111.3 77.4435 101.116 92.7341 91.8719 107.357C91.7724 107.515 91.676 107.513 91.5826 107.352C89.8739 104.359 90.0185 101.942 90.9949 98.4216C95.4475 82.3677 99.7915 66.0322 106.92 50.9324Z" fill="#F398C1"/>
<path d="M15.5861 45.5267C17.7318 41.5352 20.9398 39.279 25.21 38.7581C31.7284 37.9541 36.6646 46.3126 38.9791 51.4731C39.7385 53.1675 40.9409 54.871 41.4969 56.2066C46.7902 68.9533 50.2031 81.5865 54.8636 98.1764C55.8807 101.801 56.0254 104.314 54.3528 107.421C54.2594 107.587 54.1615 107.59 54.059 107.43C52.1936 104.513 48.3362 98.611 42.4869 89.7225C35.2934 78.7988 27.639 68.6308 19.5234 59.2184C19.1105 58.7368 18.5319 58.2705 17.7876 57.8192C12.9508 54.8801 13.1497 50.0649 15.5861 45.5267Z" fill="#F398C1"/>
<path d="M286.858 85.3069C282.396 85.9792 279.757 82.3769 280.145 78.1476C280.465 74.7073 281.967 71.8515 284.652 69.5801C289.76 65.2646 296.278 68.6534 295.334 75.3493C295.09 77.0725 294.493 78.77 293.544 80.4417C293.438 80.6264 293.491 80.7279 293.702 80.746C294.859 80.8505 296.215 80.9414 296.41 79.3878C297.042 74.3121 297.582 69.2273 298.028 64.1334C298.177 62.4527 298.408 59.7588 299.149 58.2643C301.011 54.512 305.685 53.4173 309.437 54.3349C309.46 54.3404 309.48 54.352 309.496 54.3683C309.513 54.3846 309.524 54.4051 309.53 54.4275C309.535 54.4499 309.535 54.4734 309.528 54.4955C309.521 54.5176 309.509 54.5375 309.491 54.5529C306.73 56.9833 305.55 60.2404 304.686 64.1652C303.773 68.3263 303.067 72.5253 302.566 76.7621C302.316 78.9093 301.768 80.6779 300.921 82.068C300.4 82.928 299.539 83.4747 298.34 83.7079C296.052 84.1561 293.785 84.1515 291.537 83.6942C291.398 83.667 291.329 83.723 291.329 83.8623C291.279 88.3868 289.525 96.3956 283.567 96.0776C278.974 95.8323 278.572 90.1676 280.077 86.8605C280.141 86.7182 280.234 86.6939 280.358 86.7878C283.046 88.8381 285.279 88.4459 287.057 85.6113C287.211 85.366 287.144 85.2645 286.858 85.3069ZM285.256 82.7952C285.782 83.0811 286.492 82.9743 287.229 82.4983C287.966 82.0223 288.67 81.2161 289.186 80.257C289.702 79.2979 289.988 78.2644 289.98 77.3841C289.973 76.5037 289.674 75.8484 289.147 75.5625C288.621 75.2765 287.911 75.3833 287.174 75.8593C286.437 76.3353 285.733 77.1416 285.217 78.1007C284.701 79.0598 284.415 80.0932 284.423 80.9736C284.43 81.854 284.73 82.5092 285.256 82.7952Z" fill="#F1BAD5"/>
<path d="M314.83 85.3025C310.183 86.0521 307.538 81.9954 308.108 77.689C308.476 74.9119 309.743 72.4179 311.91 70.2072C314.504 67.5633 319.373 66.3005 321.936 69.7847C324.318 73.0236 323.378 77.2483 321.475 80.4918C321.333 80.7341 321.401 80.8416 321.678 80.8143L323.902 80.5872C323.982 80.5796 324.057 80.5448 324.114 80.4886C324.172 80.4325 324.209 80.3583 324.219 80.2783C325.181 73.3734 325.561 66.4277 326.642 59.5637C326.863 58.16 328.115 56.5428 329.34 55.6978C331.706 54.0655 334.364 53.6143 337.314 54.3441C337.477 54.3835 337.498 54.4607 337.377 54.5758C335.458 56.4171 334.163 58.5537 333.494 60.9855C332.171 65.7947 331.233 70.8613 330.678 76.1853C330.348 79.3471 329.399 83.3991 325.656 83.8852C323.607 84.1547 321.571 84.0972 319.549 83.7126C319.426 83.6914 319.361 83.7429 319.355 83.867C319.142 87.9736 317.827 95.7779 312.181 96.0596C307.019 96.3185 306.463 90.3721 308.009 86.8924C308.084 86.7229 308.195 86.6926 308.343 86.8016C311.049 88.8337 313.275 88.4309 315.02 85.5932C315.167 85.357 315.104 85.2601 314.83 85.3025ZM313.218 82.7947C313.479 82.9359 313.787 82.9821 314.125 82.9308C314.464 82.8794 314.825 82.7316 315.19 82.4956C315.554 82.2596 315.914 81.9402 316.249 81.5555C316.584 81.1709 316.887 80.7285 317.141 80.2536C317.655 79.2947 317.939 78.2618 317.93 77.3822C317.92 76.5025 317.619 75.8482 317.093 75.5632C316.832 75.4221 316.523 75.3759 316.185 75.4272C315.847 75.4785 315.485 75.6264 315.121 75.8623C314.757 76.0983 314.397 76.4177 314.062 76.8024C313.727 77.1871 313.424 77.6295 313.169 78.1043C312.655 79.0633 312.372 80.0962 312.381 80.9758C312.39 81.8554 312.691 82.5097 313.218 82.7947Z" fill="#F1BAD5"/>
<path d="M211.454 82.0088C210.92 79.5013 208.628 81.759 207.896 82.504C204.705 85.7565 200.492 88.6048 195.94 88.9728C185.624 89.8041 180.118 79.6739 182.555 70.5295C183.61 66.5834 185.871 63.5428 189.34 61.4078C195.212 57.8009 202.96 57.9962 206.951 64.0652C206.952 64.0664 206.953 64.0681 206.953 64.0698C206.953 64.0715 206.952 64.0731 206.951 64.0743C206.95 64.0755 206.948 64.0762 206.947 64.0762C206.945 64.0762 206.943 64.0755 206.942 64.0743C203.841 61.3396 200.291 60.6855 196.292 62.1119C193.453 63.1264 191.498 64.9041 190.425 67.445C188.165 72.7963 189.39 79.2151 194.819 81.7953C198.412 83.5079 203.349 82.5767 206.219 80.1509C207.461 79.103 208.64 77.9855 209.758 76.7984C210.708 75.7899 211.662 76.1488 212.037 77.3889C212.513 78.9728 212.406 80.5219 211.716 82.0361C211.598 82.2905 211.511 82.2814 211.454 82.0088Z" fill="#F1BAD5"/>
<path d="M271.078 61.4218C273.473 58.033 278.934 59.5139 277.013 63.9067C275.932 66.3824 271.729 67.9224 270.54 64.5245C270.467 64.3216 270.363 64.3049 270.228 64.4745C267.118 68.3222 262.778 63.6705 266.584 60.8994C268.233 59.7032 269.628 59.8788 270.77 61.4264C270.873 61.5687 270.975 61.5672 271.078 61.4218Z" fill="#F1BAD5"/>
<path d="M285.303 65.978C281.23 63.3614 287.554 57.7285 289.624 62.4846C289.685 62.6179 289.653 62.7239 289.529 62.8026L288.286 63.5976C288.16 63.6794 288.057 63.6551 287.979 63.5249C287.69 63.0252 287.305 62.4574 286.682 62.4392C285.714 62.4074 285.181 63.4659 285.461 64.3017C285.509 64.4501 285.604 64.5576 285.746 64.6242C286.926 65.1784 288.639 64.5243 289.846 64.1791C290.036 64.1245 290.113 64.1942 290.076 64.388L289.76 66.087C289.727 66.2596 289.623 66.3308 289.448 66.3005C287.482 65.9643 286.239 66.673 284.742 67.9404C284.721 67.963 284.691 67.9764 284.66 67.9779C284.629 67.9795 284.599 67.969 284.575 67.9487C284.551 67.9284 284.536 67.8998 284.533 67.8687C284.53 67.8376 284.538 67.8064 284.557 67.7814L285.389 66.3368C285.473 66.1884 285.445 66.0688 285.303 65.978Z" fill="#F1BAD5"/>
<path d="M313.248 65.9643C309.347 63.2977 315.364 57.7557 317.61 62.4891C317.668 62.6103 317.64 62.7072 317.529 62.7799L316.295 63.5748C316.144 63.6717 316.021 63.643 315.924 63.4885C315.617 62.9979 315.255 62.4346 314.631 62.4255C313.655 62.4119 313.171 63.4613 313.42 64.2971C313.465 64.4516 313.56 64.5651 313.705 64.6378C314.808 65.1875 316.684 64.5015 317.818 64.1972C318.005 64.1457 318.08 64.2153 318.044 64.4061L317.719 66.0779C317.686 66.2353 317.591 66.3035 317.434 66.2823C315.599 66.04 314.047 66.5851 312.778 67.9176C312.754 67.9437 312.721 67.9599 312.685 67.9631C312.65 67.9663 312.615 67.9562 312.586 67.9349C312.557 67.9135 312.538 67.8824 312.531 67.8473C312.524 67.8123 312.53 67.7759 312.548 67.745L313.339 66.3504C313.426 66.196 313.396 66.0673 313.248 65.9643Z" fill="#F1BAD5"/>
<path d="M18.5381 87.3285C15.3106 85.0481 11.8796 82.8721 8.15483 81.5184C5.92629 80.7098 5.18947 79.883 4.30348 77.7934C2.68218 73.9654 2.62793 70.3843 4.14075 67.0499C7.4361 59.7953 13.9906 61.5397 18.7506 65.9143C23.0781 69.8906 26.6145 73.7837 29.3599 77.5935C36.4388 87.4208 43.0385 97.5616 49.1591 108.016C50.5423 110.378 51.1737 112.983 51.0531 115.829C51.0381 116.15 50.9175 116.199 50.6915 115.975C40.4664 105.867 30.3544 95.6779 18.5381 87.3285Z" fill="#F398C1"/>
<path d="M132.469 62.6072C140.095 60.2904 143.472 67.9857 142.667 74.082C142.247 77.2801 140.353 80.042 137.514 81.4048C131.659 84.2152 126.215 87.6813 121.182 91.803C111.45 99.78 104.814 106.462 95.1447 116.397C94.9699 116.573 94.8765 116.536 94.8645 116.288C94.7078 113.299 95.5079 110.283 97.2648 107.239C103.018 97.2694 109.877 86.8424 117.841 75.9582C120.903 71.7759 124.262 68.2326 127.917 65.3283C129.732 63.8867 131.249 62.9797 132.469 62.6072Z" fill="#F398C1"/>
<path d="M237.835 80.5644C235.724 79.5332 233.455 78.284 233.179 75.8627C232.867 73.128 235.371 69.6847 237.568 68.3855C242.545 65.4418 247.49 65.8234 253.091 66.8546C253.287 66.8909 253.341 66.9969 253.254 67.1726C252.066 69.6801 251.342 72.3179 251.079 75.0859C251.061 75.2707 250.962 75.3434 250.781 75.304C248.055 74.718 242.197 73.6459 240.655 76.8848C239.765 78.7473 243.503 79.5378 244.67 79.6877C246.182 79.8845 248.067 79.8194 250.325 79.4923C250.354 79.4878 250.384 79.4909 250.412 79.5015C250.44 79.5121 250.464 79.5297 250.484 79.5529C250.503 79.576 250.517 79.6038 250.523 79.6337C250.529 79.6636 250.528 79.6947 250.519 79.724L249.312 83.6989C249.264 83.8624 249.157 83.9275 248.991 83.8942C246.538 83.4096 244.531 83.2734 242.97 83.4853C239.745 83.9214 236.131 84.0759 232.126 83.9487C230.647 83.9033 228.762 83.7715 228.107 82.2952C228.041 82.1437 227.932 82.1044 227.781 82.1771C223.591 84.2349 218.732 81.423 214.541 83.6216C214.397 83.6973 214.317 83.6534 214.302 83.4899C214.049 80.9551 214.668 77.6162 217.217 76.5578C217.923 76.267 219.053 76.2019 220.608 76.3624C222.371 76.5487 228.699 77.8661 229.029 74.9269C229.364 71.8879 222.316 72.9236 220.68 72.969C219.236 73.0114 218.219 72.8873 217.629 72.5965C215.138 71.3655 215.531 67.4906 216.25 65.2419C216.292 65.1147 216.371 65.086 216.485 65.1556C219.649 67.0408 225.101 66.2186 227.732 66.632C232.908 67.436 232.252 75.731 230.331 79.0471C230.236 79.2114 230.185 79.3977 230.184 79.5877C230.182 79.7776 230.229 79.9648 230.322 80.1307C230.414 80.2966 230.547 80.4355 230.709 80.5339C230.871 80.6322 231.055 80.6866 231.244 80.6916L237.767 80.8461C238.213 80.8551 238.236 80.7613 237.835 80.5644Z" fill="#F1BAD5"/>
<path d="M262.423 83.5324C260.798 82.2188 259.893 80.1414 259.907 77.7573C259.922 75.3731 260.856 72.8774 262.502 70.8192C263.318 69.8001 264.284 68.9191 265.345 68.2265C266.406 67.5339 267.542 67.0432 268.688 66.7825C269.834 66.5218 270.967 66.4962 272.023 66.7071C273.078 66.918 274.036 67.3613 274.841 68.0118C276.467 69.3253 277.372 71.4027 277.357 73.7869C277.342 76.1711 276.409 78.6668 274.762 80.7249C273.947 81.744 272.981 82.625 271.919 83.3177C270.858 84.0103 269.722 84.5009 268.576 84.7616C267.431 85.0223 266.297 85.048 265.242 84.837C264.186 84.6261 263.228 84.1828 262.423 83.5324ZM266.003 82.3539C266.281 82.4754 266.611 82.4683 266.976 82.333C267.34 82.1976 267.73 81.9366 268.125 81.5649C268.52 81.1933 268.911 80.7182 269.276 80.1667C269.641 79.6153 269.973 78.9984 270.253 78.3512C270.819 77.0442 271.138 75.6931 271.141 74.5953C271.143 73.4975 270.829 72.7428 270.267 72.4973C269.989 72.3758 269.658 72.3829 269.294 72.5183C268.93 72.6536 268.54 72.9146 268.145 73.2863C267.75 73.658 267.359 74.1331 266.994 74.6845C266.629 75.2359 266.297 75.8528 266.017 76.5C265.451 77.8071 265.132 79.1581 265.129 80.2559C265.127 81.3537 265.441 82.1084 266.003 82.3539Z" fill="#F1BAD5"/>
<path d="M196.666 72.4313C195.553 73.6313 195.458 75.3614 196.455 76.2956C197.452 77.2298 199.163 77.0144 200.276 75.8144C201.39 74.6144 201.484 72.8843 200.487 71.95C199.49 71.0158 197.78 71.2313 196.666 72.4313Z" fill="#F1BAD5"/>
<path d="M25.278 109.747C23.2559 108.723 20.5783 107.696 17.2453 106.667C15.0424 105.988 13.4813 105.348 12.5622 104.745C8.1277 101.851 6.15682 96.5638 7.47676 91.4215C7.85195 89.9451 8.95944 87.1741 11.0524 88.3733C15.1508 90.7143 19.2825 93.6413 23.4472 97.1544C32.2348 104.571 40.4694 112.272 48.151 120.258C49.6337 121.8 50.797 123.608 51.6408 125.682C51.692 125.807 51.6513 125.855 51.5187 125.828C50.9582 125.71 50.4112 125.61 49.9366 125.26C41.2575 118.846 33.0379 113.675 25.278 109.747Z" fill="#F398C1"/>
<path d="M138.124 90.572C140.231 97.436 136.944 104.2 130.123 106.181C116.969 110.006 105.758 118.4 94.6608 126.123C94.4408 126.274 94.3474 126.217 94.3805 125.95C94.5433 124.627 95.1174 123.422 96.1028 122.334C105.816 111.62 116.407 101.87 127.876 93.0841C130.028 91.4351 134.354 87.9599 136.745 88.3142C136.897 88.3378 137.034 88.4172 137.13 88.5368C137.533 89.0486 137.865 89.727 138.124 90.572Z" fill="#F398C1"/>
<path d="M203.719 96.9046C204.199 96.9046 204.587 96.5141 204.587 96.0324C204.587 95.5507 204.199 95.1602 203.719 95.1602C203.24 95.1602 202.852 95.5507 202.852 96.0324C202.852 96.5141 203.24 96.9046 203.719 96.9046Z" fill="#F1BAD5"/>
<path d="M203.503 102.06C203.632 102.036 203.755 101.985 203.863 101.909C203.972 101.834 204.063 101.737 204.131 101.623C204.199 101.51 204.243 101.384 204.259 101.252C204.276 101.121 204.264 100.988 204.226 100.861L203.444 98.299C203.405 98.1718 203.432 98.0628 203.525 97.972C203.866 97.6267 204.288 97.4496 204.791 97.4405C205.092 97.4374 205.29 97.5798 205.383 97.8675C206.206 100.398 206.346 103.587 202.91 104.118C202.754 104.142 202.615 104.103 202.494 104C202.061 103.643 201.872 103.172 201.929 102.587C201.936 102.52 201.963 102.457 202.008 102.408C202.053 102.358 202.113 102.324 202.178 102.31L203.503 102.06Z" fill="#F1BAD5"/>
<path d="M182.071 102.465C182.08 103.413 182.445 104.201 183.165 104.831C183.199 104.86 183.225 104.896 183.243 104.936C183.26 104.976 183.268 105.02 183.266 105.064C183.264 105.108 183.251 105.151 183.23 105.189C183.209 105.228 183.179 105.261 183.143 105.286L182.058 106.035C181.88 106.159 181.725 106.135 181.592 105.963C180.299 104.291 180.295 102.683 181.335 100.92C181.592 100.484 181.506 100.03 181.66 99.6209C182.064 98.5489 182.752 97.9084 183.726 97.6994C186.99 97.0089 188.517 101.792 186.411 103.814C186.299 103.92 186.168 103.958 186.018 103.927C184.683 103.667 183.471 103.126 182.383 102.306C182.354 102.283 182.32 102.27 182.283 102.267C182.247 102.263 182.21 102.27 182.178 102.287C182.145 102.304 182.118 102.329 182.099 102.36C182.08 102.392 182.071 102.428 182.071 102.465ZM183.956 99.2712L183.093 100.175C183.047 100.224 183.01 100.281 182.986 100.343C182.962 100.406 182.951 100.473 182.952 100.54C182.954 100.607 182.969 100.673 182.996 100.735C183.023 100.796 183.062 100.851 183.111 100.897L183.134 100.916C183.601 101.366 184.128 101.717 184.599 101.89C185.069 102.062 185.444 102.044 185.642 101.838L185.715 101.761C185.813 101.658 185.864 101.513 185.866 101.333C185.868 101.153 185.821 100.942 185.726 100.712C185.632 100.481 185.493 100.237 185.316 99.9909C185.14 99.7453 184.929 99.5038 184.698 99.2802L184.675 99.2575C184.627 99.2107 184.57 99.174 184.508 99.1493C184.446 99.1247 184.38 99.1126 184.313 99.1139C184.246 99.1152 184.18 99.1297 184.119 99.1567C184.058 99.1837 184.003 99.2226 183.956 99.2712Z" fill="#F1BAD5"/>
<path d="M192.984 102.297C192.957 102.278 192.926 102.267 192.894 102.265C192.861 102.263 192.829 102.269 192.801 102.284C192.772 102.298 192.749 102.32 192.732 102.347C192.716 102.374 192.707 102.406 192.708 102.437C192.705 103.282 193.006 104.002 193.612 104.595C193.684 104.666 193.739 104.752 193.772 104.848C193.805 104.944 193.816 105.047 193.803 105.147C193.79 105.248 193.753 105.345 193.697 105.43C193.64 105.514 193.565 105.585 193.476 105.635C192.886 105.972 192.443 106.025 192.147 105.794C192.009 105.688 191.829 105.367 191.609 104.831C191.022 103.42 191.177 102.057 192.075 100.743C192.152 100.627 192.199 100.492 192.211 100.352C192.532 95.4779 199.818 97.6539 197.626 103.114C197.334 103.844 196.814 104.085 196.066 103.836C194.936 103.461 193.909 102.948 192.984 102.297ZM194.525 99.312L193.711 100.252C193.623 100.355 193.579 100.488 193.588 100.624C193.597 100.759 193.66 100.885 193.761 100.975L193.793 101.002C194.285 101.433 194.832 101.762 195.311 101.917C195.791 102.071 196.165 102.037 196.351 101.824L196.437 101.729C196.53 101.623 196.573 101.476 196.565 101.296C196.557 101.116 196.498 100.907 196.39 100.68C196.283 100.453 196.129 100.214 195.939 99.9754C195.748 99.7367 195.524 99.5036 195.28 99.2892L195.248 99.262C195.198 99.2173 195.139 99.1832 195.075 99.1615C195.011 99.1398 194.944 99.131 194.876 99.1357C194.809 99.1403 194.743 99.1583 194.683 99.1885C194.623 99.2188 194.569 99.2607 194.525 99.312Z" fill="#F1BAD5"/>
<path d="M72.9452 136.748C82.6492 136.748 90.5159 128.843 90.5159 119.091C90.5159 109.339 82.6492 101.434 72.9452 101.434C63.2412 101.434 55.3745 109.339 55.3745 119.091C55.3745 128.843 63.2412 136.748 72.9452 136.748Z" fill="#BC6C9A"/>
<path d="M189.308 103.732C189.892 103.732 190.366 103.256 190.366 102.669C190.366 102.082 189.892 101.606 189.308 101.606C188.724 101.606 188.25 102.082 188.25 102.669C188.25 103.256 188.724 103.732 189.308 103.732Z" fill="#F1BAD5"/>
<path d="M199.968 103.741C200.554 103.741 201.03 103.263 201.03 102.673C201.03 102.084 200.554 101.606 199.968 101.606C199.381 101.606 198.905 102.084 198.905 102.673C198.905 103.263 199.381 103.741 199.968 103.741Z" fill="#F1BAD5"/>
</svg>
